<?xml version="1.0" encoding="utf-8"?>
<!-- Generator: Adobe Illustrator 16.0.0, SVG Export Plug-In . SVG Version: 6.00 Build 0)  -->
<!DOCTYPE svg PUBLIC "-//W3C//DTD SVG 1.1//EN" "http://www.w3.org/Graphics/SVG/1.1/DTD/svg11.dtd">
<svg version="1.1" id="Layer_1" xmlns="http://www.w3.org/2000/svg" xmlns:xlink="http://www.w3.org/1999/xlink" x="0px" y="0px"
	 width="283.46px" height="283.46px" viewBox="0 0 283.46 283.46" enable-background="new 0 0 283.46 283.46" xml:space="preserve">
<g>
	<path fill="#333333" d="M98.224,115.84c-0.9-2.257-1.629-4.603-2.168-6.973l2.032-0.462c0.515,2.265,1.212,4.507,2.072,6.663
		L98.224,115.84z M186.96,113.934l-1.968-0.688c0.766-2.192,1.365-4.462,1.781-6.748l2.053,0.375
		C188.39,109.265,187.761,111.641,186.96,113.934z M94.991,101.645c-0.077-1.102-0.116-2.223-0.116-3.33
		c0-1.322,0.055-2.656,0.164-3.967l2.078,0.172c-0.104,1.252-0.157,2.529-0.157,3.794c0,1.06,0.037,2.132,0.11,3.186L94.991,101.645
		z M189.579,99.611l-2.084-0.056c0.011-0.413,0.016-0.826,0.016-1.241c0-1.917-0.12-3.845-0.358-5.731l2.067-0.26
		c0.249,1.972,0.376,3.987,0.376,5.991C189.596,98.749,189.59,99.181,189.579,99.611z M98.227,87.632l-2.026-0.49
		c0.572-2.363,1.333-4.701,2.264-6.945l1.925,0.799C99.501,83.14,98.773,85.374,98.227,87.632z M185.745,85.751
		c-0.642-2.23-1.466-4.427-2.446-6.533l1.89-0.881c1.025,2.203,1.889,4.503,2.561,6.837L185.745,85.751z M103.553,74.772
		l-1.78-1.085c1.264-2.073,2.701-4.065,4.271-5.922l1.591,1.345C106.134,70.887,104.763,72.791,103.553,74.772z M179.874,73.141
		c-1.291-1.926-2.742-3.771-4.317-5.48l1.533-1.412c1.647,1.788,3.167,3.717,4.517,5.732L179.874,73.141z M112.536,64.14
		l-1.368-1.573c1.833-1.595,3.804-3.059,5.856-4.352l1.111,1.763C116.173,61.215,114.288,62.615,112.536,64.14z M170.45,62.903
		c-1.817-1.451-3.762-2.771-5.774-3.921l1.034-1.81c2.105,1.205,4.139,2.584,6.04,4.101L170.45,62.903z M124.305,56.728
		l-0.827-1.914c2.231-0.963,4.555-1.759,6.907-2.365l0.52,2.018C128.657,55.047,126.436,55.807,124.305,56.728z M158.367,55.996
		c-2.17-0.828-4.423-1.492-6.697-1.974l0.433-2.039c2.379,0.504,4.736,1.198,7.007,2.065L158.367,55.996z M137.775,53.255
		l-0.202-2.076c2.402-0.233,4.862-0.287,7.294-0.154l-0.115,2.082C142.425,52.981,140.072,53.03,137.775,53.255z"/>
	<path fill="#343332" d="M98.224,116.584c-0.1,0-0.2-0.021-0.294-0.061c-0.181-0.078-0.324-0.225-0.397-0.409
		c-0.914-2.291-1.655-4.673-2.203-7.083c-0.092-0.401,0.16-0.8,0.56-0.891l2.032-0.463c0.193-0.044,0.396-0.009,0.562,0.096
		c0.167,0.105,0.286,0.272,0.33,0.465c0.506,2.226,1.192,4.431,2.038,6.552c0.152,0.382-0.034,0.815-0.416,0.967l-1.936,0.773
		C98.412,116.566,98.318,116.584,98.224,116.584z M96.953,109.427c0.452,1.845,1.019,3.669,1.693,5.443l0.553-0.22
		c-0.664-1.746-1.221-3.542-1.666-5.354L96.953,109.427z M186.96,114.678c-0.082,0-0.165-0.013-0.245-0.041l-1.969-0.688
		c-0.186-0.066-0.34-0.202-0.425-0.38c-0.086-0.178-0.098-0.382-0.031-0.568c0.751-2.155,1.341-4.388,1.751-6.636
		c0.036-0.194,0.146-0.366,0.311-0.479c0.163-0.112,0.363-0.155,0.556-0.12l2.05,0.375c0.405,0.074,0.675,0.461,0.6,0.866
		c-0.443,2.429-1.079,4.842-1.894,7.173C187.556,114.486,187.268,114.678,186.96,114.678z M185.934,112.787l0.562,0.196
		c0.597-1.802,1.085-3.65,1.457-5.512l-0.586-0.107C187.001,109.196,186.52,111.015,185.934,112.787z M94.99,102.39
		c-0.388,0-0.714-0.3-0.742-0.693c-0.078-1.12-0.118-2.257-0.118-3.382c0-1.342,0.056-2.697,0.167-4.028
		c0.034-0.41,0.394-0.712,0.803-0.681l2.078,0.173c0.197,0.016,0.379,0.11,0.507,0.26c0.127,0.15,0.189,0.346,0.174,0.542
		c-0.103,1.233-0.155,2.49-0.155,3.733c0,1.042,0.037,2.097,0.109,3.135c0.014,0.197-0.052,0.391-0.181,0.54
		c-0.13,0.149-0.313,0.241-0.51,0.254l-2.079,0.145C95.025,102.389,95.007,102.39,94.99,102.39z M95.725,95.152
		c-0.07,1.05-0.106,2.11-0.106,3.163c0,0.842,0.023,1.692,0.068,2.536l0.594-0.041c-0.044-0.831-0.066-1.667-0.066-2.495
		c0-1.035,0.035-2.08,0.104-3.113L95.725,95.152z M189.579,100.356c-0.006,0-0.015,0-0.021,0l-2.084-0.056
		c-0.411-0.011-0.734-0.354-0.725-0.765c0.012-0.405,0.018-0.812,0.018-1.221c0-1.889-0.119-3.785-0.354-5.637
		c-0.023-0.196,0.031-0.394,0.15-0.55c0.121-0.156,0.298-0.257,0.494-0.282l2.069-0.26c0.399-0.053,0.779,0.237,0.832,0.646
		c0.253,1.998,0.379,4.044,0.382,6.084c0,0.441-0.006,0.879-0.018,1.317C190.312,100.035,189.982,100.356,189.579,100.356z
		 M188.252,98.831l0.597,0.016c0.002-0.177,0.004-0.355,0.004-0.533c-0.002-1.726-0.095-3.458-0.282-5.159l-0.592,0.075
		c0.186,1.677,0.276,3.384,0.278,5.084C188.257,98.487,188.255,98.659,188.252,98.831z M98.228,88.377
		c-0.058,0-0.116-0.007-0.175-0.021l-2.026-0.49c-0.192-0.046-0.358-0.167-0.461-0.335c-0.103-0.168-0.134-0.371-0.088-0.563
		c0.582-2.404,1.355-4.778,2.3-7.056c0.158-0.38,0.592-0.561,0.973-0.402l1.925,0.798c0.183,0.076,0.328,0.221,0.403,0.403
		c0.076,0.182,0.076,0.387,0,0.57c-0.874,2.108-1.59,4.304-2.127,6.528C98.869,88.148,98.563,88.377,98.228,88.377z M97.105,86.595
		l0.58,0.14c0.469-1.81,1.052-3.598,1.738-5.335l-0.55-0.228C98.174,82.937,97.582,84.754,97.105,86.595z M185.745,86.496
		c-0.322,0-0.621-0.212-0.714-0.539c-0.633-2.194-1.443-4.356-2.406-6.425c-0.084-0.179-0.094-0.384-0.024-0.569
		c0.067-0.185,0.205-0.336,0.385-0.419l1.89-0.881c0.18-0.083,0.384-0.092,0.569-0.024c0.184,0.067,0.336,0.206,0.42,0.385
		c1.043,2.242,1.919,4.579,2.601,6.945c0.055,0.189,0.031,0.394-0.064,0.566c-0.095,0.172-0.254,0.3-0.445,0.355l-2.003,0.577
		C185.884,86.486,185.813,86.496,185.745,86.496z M184.283,79.581c0.76,1.705,1.42,3.465,1.966,5.25l0.573-0.165
		c-0.555-1.812-1.226-3.601-1.999-5.337L184.283,79.581z M103.553,75.517c-0.132,0-0.266-0.036-0.387-0.109l-1.78-1.085
		c-0.168-0.104-0.289-0.269-0.335-0.461c-0.046-0.191-0.015-0.394,0.088-0.563c1.283-2.104,2.742-4.127,4.336-6.015
		c0.127-0.151,0.31-0.245,0.507-0.262c0.195-0.016,0.392,0.046,0.543,0.173l1.592,1.347c0.314,0.265,0.354,0.735,0.088,1.049
		c-1.473,1.743-2.824,3.616-4.015,5.568C104.049,75.39,103.804,75.517,103.553,75.517z M102.802,73.442l0.509,0.311
		c1-1.58,2.099-3.105,3.28-4.549l-0.455-0.385C104.933,70.289,103.815,71.84,102.802,73.442z M179.876,73.886
		c-0.239,0-0.476-0.116-0.618-0.331c-1.271-1.896-2.703-3.71-4.248-5.391c-0.279-0.302-0.26-0.773,0.042-1.052l1.534-1.412
		c0.146-0.134,0.341-0.198,0.535-0.196c0.198,0.008,0.384,0.094,0.519,0.239c1.669,1.817,3.214,3.776,4.587,5.824
		c0.108,0.164,0.148,0.365,0.11,0.559c-0.039,0.194-0.151,0.364-0.315,0.474l-1.732,1.16
		C180.163,73.845,180.019,73.886,179.876,73.886z M176.604,67.708c1.244,1.394,2.406,2.871,3.471,4.403l0.495-0.331
		c-1.083-1.558-2.265-3.059-3.525-4.476L176.604,67.708z M112.536,64.884c-0.018,0-0.034,0-0.052-0.001
		c-0.197-0.014-0.381-0.105-0.51-0.254l-1.368-1.573c-0.27-0.31-0.238-0.781,0.073-1.05c1.862-1.62,3.863-3.107,5.948-4.421
		c0.347-0.22,0.808-0.115,1.027,0.233l1.111,1.764c0.105,0.167,0.14,0.369,0.097,0.562c-0.044,0.193-0.162,0.36-0.329,0.465
		c-1.931,1.217-3.784,2.595-5.508,4.094C112.888,64.82,112.714,64.884,112.536,64.884z M112.221,62.645l0.391,0.449
		c1.428-1.203,2.937-2.324,4.499-3.343l-0.317-0.504C115.206,60.283,113.673,61.422,112.221,62.645z M170.45,63.647
		c-0.163,0-0.328-0.053-0.464-0.162c-1.79-1.429-3.703-2.727-5.68-3.856c-0.171-0.099-0.296-0.261-0.349-0.452
		c-0.053-0.19-0.027-0.394,0.072-0.565l1.035-1.81c0.099-0.172,0.259-0.297,0.45-0.349c0.188-0.053,0.393-0.026,0.564,0.072
		c2.141,1.225,4.204,2.625,6.135,4.166c0.322,0.256,0.374,0.724,0.117,1.046l-1.3,1.63C170.887,63.551,170.668,63.647,170.45,63.647
		z M165.688,58.709c1.603,0.952,3.16,2.008,4.641,3.151l0.373-0.466c-1.505-1.16-3.086-2.234-4.718-3.203L165.688,58.709z
		 M124.305,57.472c-0.288,0-0.562-0.168-0.684-0.449l-0.827-1.914c-0.078-0.182-0.082-0.386-0.009-0.57
		c0.073-0.184,0.216-0.331,0.396-0.41c2.269-0.979,4.628-1.787,7.016-2.402c0.192-0.049,0.395-0.02,0.565,0.08
		c0.169,0.101,0.293,0.265,0.343,0.456l0.52,2.019c0.102,0.398-0.137,0.804-0.535,0.907c-2.21,0.569-4.394,1.317-6.491,2.222
		C124.504,57.453,124.404,57.472,124.305,57.472z M124.459,55.208l0.236,0.547c1.727-0.712,3.505-1.321,5.304-1.816l-0.148-0.577
		C128.022,53.864,126.214,54.483,124.459,55.208z M158.367,56.74c-0.09,0-0.18-0.016-0.267-0.049
		c-2.137-0.814-4.352-1.468-6.584-1.941c-0.403-0.085-0.66-0.48-0.574-0.883l0.432-2.039c0.039-0.193,0.155-0.362,0.322-0.47
		c0.165-0.107,0.364-0.146,0.56-0.104c2.42,0.513,4.815,1.219,7.119,2.098c0.185,0.071,0.333,0.212,0.414,0.392
		c0.08,0.181,0.086,0.386,0.017,0.57l-0.744,1.948C158.949,56.558,158.665,56.74,158.367,56.74z M152.552,53.454
		c1.82,0.417,3.625,0.949,5.383,1.586l0.212-0.556c-1.783-0.648-3.619-1.188-5.472-1.613L152.552,53.454z M137.775,53.999
		c-0.171,0-0.338-0.059-0.473-0.169c-0.153-0.125-0.249-0.307-0.268-0.503l-0.202-2.075c-0.02-0.197,0.04-0.393,0.166-0.545
		c0.125-0.153,0.306-0.25,0.503-0.269c2.436-0.237,4.954-0.29,7.406-0.156c0.198,0.01,0.384,0.099,0.515,0.246
		c0.132,0.147,0.199,0.34,0.188,0.538l-0.113,2.081c-0.022,0.411-0.359,0.729-0.784,0.703c-2.283-0.123-4.618-0.073-6.864,0.146
		C137.823,53.998,137.8,53.999,137.775,53.999z M138.387,51.854l0.058,0.592c1.845-0.15,3.73-0.19,5.605-0.118l0.033-0.595
		C142.185,51.661,140.269,51.702,138.387,51.854z"/>
</g>
<g>
	<path fill="#333333" d="M159.975,142.698v-2.688c0-1.628-1.333-2.962-2.961-2.962h-29.556c-1.628,0-2.961,1.334-2.961,2.962v2.688
		c0,1.629,1.333,2.962,2.961,2.962c-1.628,0-2.961,1.332-2.961,2.961v2.69c0,1.63,1.333,2.961,2.961,2.961h8.577v1.558
		c0,2.347,1.919,4.265,4.265,4.265h3.871c2.346,0,4.262-1.918,4.262-4.265v-1.558h8.581c1.628,0,2.961-1.331,2.961-2.961v-2.69
		c0-1.629-1.333-2.961-2.961-2.961C158.642,145.66,159.975,144.327,159.975,142.698z"/>
	<path fill="#343332" d="M144.171,160.839H140.3c-2.762,0-5.01-2.247-5.01-5.009v-0.812h-7.833c-2.043,0-3.706-1.663-3.706-3.706
		v-2.69c0-1.209,0.582-2.284,1.48-2.961c-0.898-0.677-1.48-1.752-1.48-2.962v-2.688c0-2.044,1.662-3.707,3.706-3.707h29.556
		c2.044,0,3.706,1.663,3.706,3.707v2.688c0,1.21-0.581,2.285-1.481,2.962c0.9,0.677,1.481,1.752,1.481,2.961v2.69
		c0,2.043-1.662,3.706-3.706,3.706h-7.837v0.812C149.177,158.592,146.932,160.839,144.171,160.839z M128.202,145.66
		c0,0.411-0.333,0.745-0.745,0.745c-1.223,0-2.217,0.994-2.217,2.216v2.69c0,1.222,0.995,2.216,2.217,2.216h8.577
		c0.411,0,0.745,0.334,0.745,0.745v1.558c0,1.941,1.58,3.52,3.521,3.52h3.871c1.939,0,3.519-1.578,3.519-3.52v-1.558
		c0-0.411,0.332-0.745,0.743-0.745h8.581c1.223,0,2.218-0.994,2.218-2.216v-2.69c0-1.222-0.995-2.216-2.218-2.216
		c-0.41,0-0.743-0.334-0.743-0.745c0-0.41,0.333-0.744,0.743-0.744c1.223,0,2.218-0.994,2.218-2.218v-2.688
		c0-1.223-0.995-2.217-2.218-2.217h-29.556c-1.223,0-2.217,0.994-2.217,2.217v2.688c0,1.224,0.995,2.218,2.217,2.218
		C127.869,144.916,128.202,145.25,128.202,145.66z"/>
</g>
<g>
	<path fill="#FFD107" d="M169.047,111.503L169.047,111.503c2.391-4.358,3.755-9.36,3.755-14.683
		c0-16.882-13.684-30.567-30.564-30.567S111.67,79.938,111.67,96.82c0,5.323,1.363,10.325,3.754,14.683h-0.001
		c0,0,0.014,0.023,0.023,0.038c0.448,0.815,0.93,1.609,1.449,2.376c3.46,5.727,11.844,19.932,11.795,23.13h13.542h0.001h13.544
		c-0.05-3.197,8.319-17.38,11.785-23.116c0.53-0.783,1.024-1.59,1.479-2.424L169.047,111.503z"/>
	<path fill="#343332" d="M155.779,137.792h-27.088c-0.2,0-0.391-0.081-0.531-0.223c-0.14-0.142-0.217-0.334-0.214-0.534
		c0.031-2.04-4.446-10.75-11.688-22.734c-0.497-0.733-0.996-1.551-1.464-2.402c-2.54-4.625-3.87-9.826-3.87-15.079
		c0-17.266,14.047-31.312,31.312-31.312c17.265,0,31.309,14.046,31.309,31.312c0,5.24-1.325,10.428-3.828,15.006
		c-0.006,0.014-0.012,0.027-0.019,0.04c-0.464,0.844-0.974,1.68-1.518,2.482c-7.214,11.937-11.689,20.642-11.658,22.688
		c0.004,0.2-0.074,0.392-0.215,0.534C156.169,137.711,155.979,137.792,155.779,137.792z M129.352,136.303h25.767
		c0.831-4.157,7.64-15.855,11.811-22.756c0.529-0.785,1.008-1.57,1.443-2.362c0.009-0.013,0.015-0.027,0.022-0.041
		c2.396-4.366,3.661-9.319,3.661-14.324c0-16.444-13.375-29.822-29.818-29.822c-16.444,0-29.823,13.378-29.823,29.822
		c0,5.004,1.267,9.958,3.663,14.324c0.003,0.006,0.006,0.012,0.009,0.018c0.469,0.848,0.939,1.619,1.426,2.338
		C121.707,120.439,128.521,132.15,129.352,136.303z"/>
</g>
<g>
	<path fill="#FFFFFF" d="M142.235,85.682c1.88,0,3.403,1.522,3.403,3.405v13.947c0,1.882-1.523,3.406-3.403,3.406l0,0
		c-1.88,0-3.404-1.524-3.404-3.406V89.086C138.832,87.204,140.355,85.682,142.235,85.682L142.235,85.682z"/>
</g>
<g>
	<path fill="#FFFFFF" d="M145.639,115.454c0,1.879-1.523,3.403-3.403,3.403s-3.404-1.523-3.404-3.403
		c0-1.882,1.524-3.405,3.404-3.405S145.639,113.571,145.639,115.454z"/>
</g>
<g>
	<path fill="#FEEAE1" d="M220.247,91.334c-4.109,0-7.438,3.332-7.438,7.438v27.99c-4.499-0.332-9.11,1.21-12.546,4.649
		l-16.354,16.353c-3.138,3.137-4.706,7.248-4.706,11.358v25.78h26.438v-13.525c0.336-0.287,0.668-0.576,0.986-0.894l16.352-16.353
		c1.589-1.59,2.771-3.43,3.559-5.393c0.716-1.145,1.146-2.485,1.146-3.936v-2.024c0-0.004,0-0.009,0-0.014V98.772
		C227.684,94.666,224.353,91.334,220.247,91.334z"/>
	<path fill="#343332" d="M205.641,185.646h-26.438c-0.413,0-0.746-0.334-0.746-0.744v-25.78c0-4.489,1.75-8.71,4.926-11.885
		l16.352-16.353c3.271-3.273,7.67-5.028,12.33-4.905V98.772c0-4.512,3.67-8.183,8.183-8.183c4.511,0,8.182,3.67,8.182,8.183v46.03
		c0,1.494-0.424,2.971-1.226,4.273c-0.85,2.098-2.094,3.975-3.698,5.58l-16.352,16.354c-0.257,0.256-0.521,0.495-0.769,0.71v13.183
		C206.385,185.312,206.052,185.646,205.641,185.646z M179.946,184.157h24.949v-12.78c0-0.218,0.097-0.426,0.262-0.567
		c0.295-0.249,0.634-0.542,0.943-0.852l16.351-16.354c1.479-1.479,2.62-3.209,3.394-5.144c0.017-0.041,0.038-0.081,0.06-0.119
		c0.678-1.079,1.035-2.303,1.035-3.539v-46.03c0-3.691-3.002-6.694-6.692-6.694c-3.691,0-6.693,3.003-6.693,6.694v27.99
		c0,0.207-0.087,0.404-0.239,0.544c-0.149,0.142-0.354,0.215-0.56,0.198c-0.379-0.028-0.762-0.042-1.14-0.042
		c-4.098,0-7.942,1.59-10.827,4.476l-16.353,16.354c-2.895,2.893-4.489,6.74-4.489,10.831V184.157z"/>
</g>
<g>
	<path fill="#FEEAE1" d="M188.555,143.119l17.405-17.404c2.902-2.906,7.612-2.906,10.517,0l0,0c2.906,2.904,2.908,7.613,0,10.519
		l-11.05,11.051"/>
	<path fill="#343332" d="M205.427,148.029c-0.19,0-0.381-0.073-0.527-0.219c-0.29-0.291-0.29-0.762,0-1.053l11.052-11.051
		c1.265-1.264,1.962-2.945,1.962-4.732c-0.001-1.787-0.699-3.469-1.962-4.732c-1.266-1.266-2.945-1.962-4.733-1.962
		c-1.787,0-3.469,0.697-4.732,1.961l-17.405,17.405c-0.29,0.292-0.761,0.292-1.054,0c-0.29-0.29-0.29-0.762,0-1.052l17.405-17.405
		c1.547-1.546,3.6-2.398,5.786-2.398c2.185,0,4.24,0.852,5.783,2.398c1.548,1.545,2.398,3.6,2.401,5.786
		c0,2.186-0.854,4.24-2.401,5.785l-11.049,11.051C205.806,147.956,205.617,148.029,205.427,148.029z"/>
</g>
<g>
	<path fill="#FFFFFF" d="M214.199,127.922c-1.704-1.705-4.465-1.705-6.168,0l-3.076,3.075l6.168,6.167l3.076-3.075
		C215.902,132.386,215.902,129.625,214.199,127.922z"/>
	<path fill="#343332" d="M211.123,137.909c-0.191,0-0.382-0.073-0.528-0.218l-6.167-6.168c-0.138-0.139-0.218-0.329-0.218-0.526
		c0-0.198,0.08-0.387,0.218-0.527l3.077-3.075c0.964-0.965,2.245-1.497,3.61-1.497c1.362,0,2.646,0.532,3.609,1.497
		c0.965,0.964,1.496,2.246,1.496,3.61c0,1.364-0.531,2.647-1.496,3.611l-3.076,3.075
		C211.502,137.836,211.313,137.909,211.123,137.909z M206.009,130.997l5.114,5.114l2.548-2.548c0.686-0.684,1.062-1.591,1.062-2.558
		s-0.376-1.875-1.062-2.557c-0.684-0.684-1.591-1.06-2.556-1.06c-0.966,0-1.875,0.376-2.556,1.059L206.009,130.997z"/>
</g>
<g>
	<polygon fill="#FFFFFF" points="175,180.674 209.604,180.614 209.569,256.923 174.964,256.983 	"/>
	<path fill="#343332" d="M174.964,257.729c-0.196,0-0.385-0.077-0.525-0.218c-0.14-0.14-0.218-0.329-0.218-0.528l0.036-76.31
		c0-0.41,0.332-0.743,0.743-0.743l34.603-0.061h0.002c0.197,0,0.386,0.077,0.526,0.218c0.14,0.14,0.22,0.328,0.22,0.528
		l-0.036,76.309c0,0.408-0.332,0.742-0.743,0.742l-34.605,0.062H174.964z M175.743,181.417l-0.033,74.822l33.116-0.061l0.033-74.819
		L175.743,181.417z"/>
</g>
<g>
	<polygon fill="#333333" points="170.042,188.39 215.229,188.312 215.184,259.132 169.996,259.214 	"/>
	<path fill="#343332" d="M169.996,259.957c-0.198,0-0.387-0.079-0.527-0.217c-0.138-0.141-0.218-0.33-0.218-0.528l0.047-70.822
		c0-0.41,0.33-0.742,0.742-0.744l45.187-0.08c0,0,0,0,0.002,0c0.196,0,0.386,0.078,0.526,0.219c0.14,0.14,0.217,0.329,0.217,0.527
		l-0.044,70.82c0,0.412-0.334,0.744-0.744,0.746L169.996,259.957L169.996,259.957z M170.785,189.134l-0.046,69.334l43.698-0.079
		l0.046-69.332L170.785,189.134z"/>
</g>
<g>
	<path fill="#FFD107" d="M207.275,194.798c1.593,0.467,2.504,2.139,2.037,3.732c-0.468,1.591-2.138,2.503-3.729,2.034
		c-1.593-0.466-2.504-2.136-2.036-3.729C204.014,195.243,205.684,194.33,207.275,194.798z"/>
	<path fill="#343332" d="M206.431,201.432c-0.357,0-0.712-0.051-1.059-0.152c-0.959-0.282-1.754-0.922-2.232-1.801
		c-0.481-0.879-0.591-1.894-0.309-2.854c0.466-1.586,1.943-2.693,3.597-2.693c0.358,0,0.712,0.052,1.059,0.154
		c0.96,0.282,1.754,0.921,2.234,1.8c0.479,0.88,0.589,1.895,0.306,2.855C209.562,200.325,208.084,201.432,206.431,201.432z
		 M206.428,195.421c-0.996,0-1.887,0.667-2.167,1.624c-0.169,0.58-0.105,1.188,0.186,1.721c0.289,0.529,0.766,0.916,1.345,1.085
		c0.21,0.062,0.426,0.092,0.64,0.092c0.996,0,1.888-0.668,2.168-1.623c0.169-0.578,0.104-1.191-0.186-1.721
		c-0.288-0.53-0.767-0.916-1.348-1.086C206.857,195.452,206.642,195.421,206.428,195.421z"/>
</g>
<g>
	<path fill="#FEEAE1" d="M64.226,91.334c4.109,0,7.436,3.332,7.436,7.438v27.99c4.499-0.332,9.111,1.21,12.549,4.649l16.351,16.353
		c3.137,3.137,4.708,7.248,4.708,11.358v25.78H78.831v-13.525c-0.335-0.287-0.669-0.576-0.987-0.894l-16.352-16.353
		c-1.588-1.59-2.773-3.43-3.557-5.393c-0.718-1.145-1.149-2.485-1.149-3.936v-2.024c0-0.004,0-0.009,0-0.014V98.772
		C56.787,94.666,60.119,91.334,64.226,91.334z"/>
	<path fill="#343332" d="M105.269,185.646H78.831c-0.412,0-0.745-0.334-0.745-0.744V171.72c-0.253-0.22-0.514-0.454-0.768-0.708
		l-16.352-16.355c-1.606-1.605-2.851-3.483-3.697-5.58c-0.803-1.303-1.227-2.779-1.227-4.273v-46.03c0-4.512,3.67-8.183,8.183-8.183
		c4.511,0,8.181,3.67,8.181,8.183v27.207c4.668-0.133,9.06,1.634,12.331,4.905l16.351,16.353c3.176,3.175,4.926,7.396,4.926,11.885
		v25.78C106.014,185.312,105.681,185.646,105.269,185.646z M79.575,184.157h24.949v-25.035c0-4.091-1.594-7.938-4.489-10.831
		l-16.351-16.354c-2.884-2.886-6.73-4.476-10.828-4.476c-0.379,0-0.762,0.015-1.14,0.042c-0.209,0.015-0.41-0.057-0.562-0.198
		c-0.151-0.141-0.237-0.338-0.237-0.544v-27.99c0-3.691-3.002-6.694-6.692-6.694c-3.691,0-6.694,3.003-6.694,6.694v46.03
		c0,1.236,0.357,2.46,1.035,3.539c0.024,0.038,0.044,0.078,0.061,0.119c0.772,1.934,1.914,3.664,3.393,5.144l16.351,16.354
		c0.305,0.304,0.633,0.588,0.943,0.854c0.167,0.14,0.262,0.348,0.262,0.565V184.157z"/>
</g>
<g>
	<path fill="#FEEAE1" d="M95.917,143.119l-17.406-17.404c-2.903-2.906-7.612-2.906-10.516,0l0,0c-2.908,2.904-2.909,7.613,0,10.519
		l11.05,11.051"/>
	<path fill="#343332" d="M79.046,148.029c-0.191,0-0.381-0.073-0.527-0.219l-11.05-11.052c-1.547-1.544-2.399-3.599-2.398-5.785
		c0-2.186,0.852-4.24,2.398-5.786c1.545-1.546,3.6-2.398,5.785-2.398c2.185,0,4.239,0.852,5.784,2.398l17.406,17.405
		c0.291,0.29,0.291,0.762,0,1.052c-0.291,0.292-0.762,0.292-1.053,0l-17.406-17.404c-1.264-1.265-2.944-1.962-4.731-1.962
		c-1.788,0-3.468,0.697-4.732,1.962c-1.266,1.264-1.962,2.946-1.962,4.733c0,1.788,0.696,3.468,1.962,4.732l11.05,11.052
		c0.292,0.291,0.292,0.762,0,1.053C79.426,147.956,79.236,148.029,79.046,148.029z"/>
</g>
<g>
	<path fill="#FFFFFF" d="M70.273,127.922c1.704-1.705,4.465-1.705,6.167,0l3.077,3.075l-6.168,6.167l-3.076-3.075
		C68.568,132.386,68.569,129.625,70.273,127.922z"/>
	<path fill="#343332" d="M73.349,137.909c-0.19,0-0.381-0.073-0.527-0.218l-3.075-3.076c-0.965-0.963-1.497-2.246-1.497-3.61
		c0-1.364,0.532-2.646,1.497-3.61c0.964-0.965,2.246-1.497,3.61-1.497c1.364,0,2.646,0.532,3.61,1.497l3.076,3.075
		c0.14,0.14,0.219,0.329,0.219,0.527c0,0.197-0.079,0.387-0.219,0.526l-6.168,6.168C73.73,137.836,73.539,137.909,73.349,137.909z
		 M73.357,127.388c-0.966,0-1.874,0.376-2.557,1.059c-0.684,0.684-1.061,1.592-1.061,2.558s0.377,1.874,1.06,2.557l2.549,2.549
		l5.115-5.114l-2.55-2.549C75.23,127.764,74.322,127.388,73.357,127.388z"/>
</g>
<g>
	<polygon fill="#FFFFFF" points="109.471,180.674 74.866,180.614 74.9,256.923 109.507,256.983 	"/>
	<path fill="#343332" d="M109.507,257.729C109.507,257.729,109.506,257.729,109.507,257.729l-34.608-0.062
		c-0.41,0-0.743-0.334-0.743-0.742l-0.034-76.309c0-0.2,0.078-0.389,0.218-0.528c0.14-0.141,0.329-0.218,0.526-0.218
		c0,0,0.001,0,0.001,0l34.604,0.061c0.411,0,0.744,0.333,0.744,0.743l0.036,76.31c0,0.199-0.079,0.389-0.219,0.528
		C109.894,257.652,109.705,257.729,109.507,257.729z M75.645,256.179l33.118,0.061l-0.036-74.822l-33.115-0.058L75.645,256.179z"/>
</g>
<g>
	<polygon fill="#333333" points="114.43,188.39 69.244,188.312 69.289,259.132 114.476,259.214 	"/>
	<path fill="#343332" d="M114.476,259.957c0,0-0.001,0-0.001,0l-45.187-0.079c-0.41-0.002-0.743-0.334-0.743-0.746l-0.044-70.82
		c0-0.198,0.078-0.388,0.218-0.527c0.14-0.141,0.329-0.219,0.526-0.219c0.001,0,0.001,0,0.001,0l45.185,0.08
		c0.411,0.002,0.744,0.334,0.744,0.744l0.046,70.822c0,0.198-0.078,0.388-0.218,0.528
		C114.862,259.878,114.673,259.957,114.476,259.957z M70.032,258.389l43.699,0.079l-0.045-69.334l-43.697-0.077L70.032,258.389z"/>
</g>
<g>
	<polygon fill="#FFFFFF" points="203.288,83.714 198.007,48.794 223.314,65.079 	"/>
	<path fill="#343332" d="M203.288,84.459c-0.084,0-0.166-0.014-0.248-0.042c-0.259-0.091-0.448-0.319-0.491-0.592l-5.279-34.92
		c-0.044-0.29,0.086-0.578,0.332-0.737c0.244-0.16,0.561-0.16,0.807-0.001l25.31,16.286c0.193,0.125,0.318,0.331,0.339,0.56
		c0.02,0.229-0.066,0.455-0.235,0.611l-20.027,18.635C203.653,84.39,203.472,84.459,203.288,84.459z M198.986,50.311l4.824,31.898
		l18.296-17.021L198.986,50.311z"/>
</g>
<g>
	<polygon fill="#55B5E7" points="243.5,80.47 229.537,77.229 243.5,63.582 	"/>
	<path fill="#343332" d="M243.5,81.214c-0.056,0-0.112-0.007-0.167-0.019l-13.966-3.241c-0.265-0.061-0.475-0.263-0.549-0.525
		c-0.072-0.262,0.004-0.542,0.196-0.733l13.967-13.647c0.214-0.209,0.533-0.27,0.81-0.154c0.274,0.117,0.455,0.387,0.455,0.687
		V80.47c0,0.227-0.103,0.441-0.282,0.583C243.832,81.159,243.668,81.214,243.5,81.214z M231.029,76.811l11.728,2.722V65.351
		L231.029,76.811z"/>
</g>
<path fill="#333333" d="M82.253,57.856c-0.508,0.427-1.259,0.473-1.825,0.069c-6.332-4.539-14.06-6.363-21.757-5.137
	c-0.811,0.129-1.575-0.425-1.705-1.237c-0.128-0.813,0.427-1.577,1.237-1.705c8.476-1.349,16.986,0.66,23.96,5.658
	c0.667,0.48,0.82,1.41,0.342,2.079C82.432,57.686,82.347,57.778,82.253,57.856z"/>
<path fill="#333333" d="M106.465,41.008c-0.627,0.527-1.564,0.448-2.093-0.179c-5.068-5.999-7.784-13.619-7.646-21.458
	c0.015-0.821,0.694-1.478,1.514-1.462c0.824,0.014,1.477,0.692,1.464,1.515c-0.127,7.117,2.339,14.036,6.941,19.483
	c0.529,0.627,0.453,1.568-0.175,2.099L106.465,41.008z"/>
<path fill="#333333" d="M91.217,47.333c-0.626,0.528-1.563,0.447-2.094-0.18L74.57,29.925c-0.532-0.628-0.453-1.566,0.175-2.098
	c0.003-0.001,0.003-0.001,0.003-0.001c0.628-0.528,1.565-0.45,2.095,0.178l14.554,17.228c0.53,0.628,0.453,1.566-0.175,2.098
	C91.22,47.331,91.219,47.331,91.217,47.333z"/>
<path fill="#333333" d="M74.147,27.125c-0.628,0.526-1.565,0.447-2.095-0.18l-2.695-3.187c-0.532-0.629-0.453-1.568,0.176-2.098
	l0.002-0.003c0.629-0.527,1.565-0.448,2.095,0.18l2.695,3.189c0.531,0.627,0.453,1.567-0.174,2.097
	C74.151,27.12,74.148,27.122,74.147,27.125z"/>
</svg>
