<svg xmlns="http://www.w3.org/2000/svg" width="82" height="116"><path d="M29.395 31.83a.62.62 0 01-.597-.465 16.226 16.226 0 00-7.408-9.957.623.623 0 01-.21-.852.617.617 0 01.847-.209 17.463 17.463 0 017.967 10.711.617.617 0 01-.445.75.521.521 0 01-.154.022zM45.503 33.309a.615.615 0 01-.618-.613 17.543 17.543 0 014.32-11.57.616.616 0 11.931.808 16.32 16.32 0 00-4.016 10.76.617.617 0 01-.617.615zM36.873 30.578a.616.616 0 01-.618-.615l-.024-12.367a.618.618 0 01.616-.619h.001c.34 0 .616.277.617.617l.024 12.367a.615.615 0 01-.616.617zM36.842 16.072a.617.617 0 01-.616-.615l-.005-2.289a.616.616 0 01.616-.619h.001c.34 0 .616.275.617.615l.005 2.291a.615.615 0 01-.616.617h-.002z" fill="#333"/><path d="M17.982 3.336A11.543 11.543 0 0114.076 8.1a11.547 11.547 0 013.906 4.768A11.579 11.579 0 0121.887 8.1a11.54 11.54 0 01-3.905-4.764z" fill="#fbf05e"/><path d="M12.17 10.346a.494.494 0 01-.285-.897A21.074 21.074 0 0019.009.761a.493.493 0 01.902.398 22.03 22.03 0 01-7.457 9.096.497.497 0 01-.284.091z" fill="#333"/><path d="M18.499 14.461a.494.494 0 01-.451-.295 15.345 15.345 0 00-5.204-6.349.494.494 0 01-.118-.688.497.497 0 01.688-.117 16.338 16.338 0 015.537 6.756.492.492 0 01-.254.65.508.508 0 01-.198.043zM23.401 9.871a.485.485 0 01-.283-.09 19.755 19.755 0 01-6.68-8.146.49.49 0 01.252-.648.494.494 0 01.651.252 18.74 18.74 0 006.345 7.736.493.493 0 01-.285.896z" fill="#333"/><path d="M16.861 15.188a.494.494 0 01-.451-.692 19.875 19.875 0 016.735-8.211.493.493 0 11.569.805 18.895 18.895 0 00-6.402 7.806.493.493 0 01-.451.292z" fill="#333"/><g><path d="M77.669 80.93a7.157 7.157 0 01-2.422 2.955 7.173 7.173 0 012.422 2.953 7.173 7.173 0 012.422-2.953 7.172 7.172 0 01-2.422-2.955z" fill="#fff"/><path d="M74.066 85.465a.495.495 0 01-.285-.897 12.899 12.899 0 004.354-5.311.493.493 0 11.903.398 13.878 13.878 0 01-4.688 5.719.484.484 0 01-.284.091z" fill="#333"/><path d="M77.99 88.016a.49.49 0 01-.451-.295 9.304 9.304 0 00-3.163-3.855c-.224-.158-.276-.468-.119-.689s.466-.272.688-.117a10.303 10.303 0 013.496 4.268.494.494 0 01-.252.65.576.576 0 01-.199.038zM81.029 85.17a.487.487 0 01-.283-.09 12.432 12.432 0 01-4.205-5.129.495.495 0 01.252-.652.496.496 0 01.65.252 11.464 11.464 0 003.871 4.724.492.492 0 01-.285.895z" fill="#333"/><path d="M76.974 88.467a.494.494 0 01-.45-.692 12.523 12.523 0 014.24-5.17.494.494 0 01.57.806 11.542 11.542 0 00-3.907 4.762.498.498 0 01-.453.294z" fill="#333"/></g><g><path d="M56.088 10.26a7.144 7.144 0 01-2.422 2.955 7.152 7.152 0 012.422 2.953 7.175 7.175 0 012.422-2.953 7.175 7.175 0 01-2.422-2.955z" fill="#fff"/><path d="M52.484 14.795a.494.494 0 01-.285-.897 12.895 12.895 0 004.354-5.312.494.494 0 01.903.4 13.894 13.894 0 01-4.688 5.719.484.484 0 01-.284.09z" fill="#333"/><path d="M56.41 17.344a.49.49 0 01-.452-.293 9.299 9.299 0 00-3.163-3.857.494.494 0 01.57-.807 10.321 10.321 0 013.496 4.27.489.489 0 01-.451.687zM59.449 14.5a.474.474 0 01-.284-.09 12.422 12.422 0 01-4.204-5.129.493.493 0 01.902-.4 11.481 11.481 0 003.871 4.723.493.493 0 01-.285.896z" fill="#333"/><path d="M55.395 17.797a.493.493 0 01-.451-.692 12.563 12.563 0 014.24-5.171.494.494 0 01.569.807 11.53 11.53 0 00-3.907 4.764.493.493 0 01-.451.292z" fill="#333"/></g><g><path d="M4.431 75.606a6.073 6.073 0 01-2.051 2.503 6.046 6.046 0 012.051 2.502 6.056 6.056 0 012.052-2.502 6.097 6.097 0 01-2.052-2.503z" fill="#fff"/><path d="M1.38 79.522a.49.49 0 01-.285-.895 10.834 10.834 0 003.662-4.467.494.494 0 01.902.398 11.816 11.816 0 01-3.994 4.873.497.497 0 01-.285.091z" fill="#333"/><path d="M4.704 81.682a.49.49 0 01-.452-.295 7.792 7.792 0 00-2.653-3.234.494.494 0 01.569-.807 8.83 8.83 0 012.987 3.646.494.494 0 01-.451.69zM7.278 79.272a.465.465 0 01-.285-.091 10.586 10.586 0 01-3.587-4.375.49.49 0 01.253-.648.495.495 0 01.651.252 9.609 9.609 0 003.252 3.967.495.495 0 01.119.689.496.496 0 01-.403.206z" fill="#333"/><path d="M3.843 82.065a.496.496 0 01-.451-.693 10.654 10.654 0 013.617-4.41.495.495 0 01.568.807 9.707 9.707 0 00-3.282 4.002.498.498 0 01-.452.294z" fill="#333"/></g><g><circle cx="36.64" cy="58.225" r="20.351" fill="#fff"/><path fill="#fff" d="M59.339 114.916l1.117-17.205-40.434-.367 1.229 17.572"/><path fill="#33bba7" d="M34.117 91.281l1.398-27.945h3.025l1.399 27.945z"/><path d="M52.759 51.281c-8.204.389-13.052 5.327-15.085 9.17-2.033-3.843-6.434-8.781-14.638-9.17-10.467-.496-19.447 5.928-19.447 5.928s1.266.633 6.167 4.744c2.096 1.758 5.816 5.737 8.854 7.112 6.842 3.103 13.823.062 17.63-2.235a30.91 30.91 0 001.658-1.078c.409.287.91.621 1.488.975 3.767 2.307 10.854 5.488 17.8 2.342 3.036-1.375 6.758-5.355 8.854-7.113 4.901-4.111 6.166-4.744 6.166-4.744s-8.979-6.427-19.447-5.931z" fill="#33bba7"/><path d="M39.938 91.897a.617.617 0 01-.616-.587l-1.397-27.941a.614.614 0 01.586-.646c.34-.018.63.244.646.584l1.397 27.945a.615.615 0 01-.585.646l-.031-.001zM34.118 91.897h-.031a.617.617 0 01-.585-.646l1.396-27.945a.613.613 0 01.648-.584.62.62 0 01.586.646l-1.397 27.941a.618.618 0 01-.617.588z" fill="#333"/><path d="M23.991 69.416c-2.086 0-4.262-.387-6.426-1.367-2.321-1.051-4.942-3.485-7.048-5.439-.723-.673-1.404-1.307-1.949-1.764C3.841 56.881.909 55.869.88 55.862a.618.618 0 01.387-1.173c.128.044 3.16 1.071 8.096 5.212a58.79 58.79 0 011.995 1.803c2.039 1.896 4.578 4.254 6.716 5.223 6.66 3.021 13.544-.084 17.056-2.203a.617.617 0 01.848.209.62.62 0 01-.209.85c-2.598 1.563-6.947 3.633-11.778 3.633zM50.218 69.418c-4.901 0-9.313-2.135-11.943-3.746a.618.618 0 01.644-1.053c3.544 2.17 10.491 5.355 17.224 2.305 2.137-.969 4.676-3.326 6.715-5.223a60.202 60.202 0 011.996-1.805c4.899-4.107 6.231-4.795 6.286-4.82a.62.62 0 01.828.273.618.618 0 01-.276.83c-.047.023-1.336.713-6.043 4.664-.547.457-1.229 1.09-1.951 1.762-2.104 1.955-4.726 4.393-7.047 5.441-2.167.985-4.345 1.372-6.433 1.372z" fill="#333"/><path d="M37.951 58.973a.608.608 0 01-.545-.328c-2.056-3.885-7.549-7.967-15.189-8.324-10.129-.492-20.214 6.456-20.314 6.527a.62.62 0 01-.859-.152.617.617 0 01.153-.859c.425-.297 10.521-7.256 21.078-6.75 8.685.41 14.166 5.096 16.222 8.984a.615.615 0 01-.256.834.68.68 0 01-.29.068z" fill="#333"/><path d="M36.173 59.092a.624.624 0 01-.289-.069.62.62 0 01-.257-.837c2.249-4.252 8.165-8.717 16.313-9.102 10.56-.5 19.907 6.584 20.301 6.887a.617.617 0 01-.754.978c-.092-.072-9.381-7.115-19.488-6.632-7.662.36-13.195 4.503-15.279 8.444a.617.617 0 01-.547.331z" fill="#333"/><g><path fill="#fff" d="M14.447 92.479h48.286v4.272H14.447z"/><path d="M63.918 97.961H10.295a.616.616 0 110-1.234h53.623a.616.616 0 110 1.234zM63.918 91.553H10.295a.615.615 0 110-1.232h53.623a.616.616 0 110 1.232z" fill="#333"/><path d="M61.428 99.266a.614.614 0 01-.617-.616v-9.021c0-.34.275-.615.617-.615s.616.275.616.615v9.021c0 .34-.274.616-.616.616zM12.787 99.266a.615.615 0 01-.618-.616v-9.021a.616.616 0 011.235 0v9.021c0 .34-.276.616-.617.616z" fill="#333"/></g><g><path d="M57.205 115.533h-.041a.617.617 0 01-.576-.656l1.076-16.555-39.113-.354 1.183 16.904a.62.62 0 01-.572.66.621.621 0 01-.659-.574L17.227 96.72l41.755.379-1.16 17.857a.621.621 0 01-.617.577z" fill="#333"/></g><g><path d="M33.683 61.227a.619.619 0 01-.392-.139C18.474 48.912 3.395 56.109 3.244 56.182a.616.616 0 11-.544-1.105c.156-.077 15.949-7.616 31.374 5.058a.617.617 0 01.086.869.628.628 0 01-.477.223z" fill="#333"/></g><g><path d="M39.731 61.227a.616.616 0 01-.393-1.094c15.424-12.674 31.217-5.137 31.375-5.059.307.148.432.52.281.825a.616.616 0 01-.826.282c-.15-.073-15.252-7.254-30.046 4.904a.599.599 0 01-.391.142z" fill="#333"/></g><g><path d="M10.086 62.649a.588.588 0 01-.312-.087.618.618 0 01-.222-.844c3.785-6.471 11.62-7.605 11.952-7.651a.617.617 0 01.167 1.223c-.075.01-7.577 1.109-11.053 7.051a.607.607 0 01-.532.308z" fill="#333"/></g><g><path d="M62.971 63.123a.617.617 0 01-.549-.334c-3.583-6.941-13.117-7.135-13.214-7.135a.617.617 0 01.007-1.234h.008c.422.006 10.377.209 14.297 7.805a.616.616 0 01-.549.898z" fill="#333"/></g><g><path d="M27.992 57.313a.619.619 0 01-.611-.716c.006-.036.499-3.301-1.853-5.76a.617.617 0 11.892-.852c2.79 2.918 2.205 6.654 2.179 6.812a.614.614 0 01-.607.516z" fill="#333"/></g><g><path d="M44.355 57.313a.62.62 0 01-.597-.781c.067-.242 1.685-5.941 5.327-6.725a.62.62 0 01.732.477.615.615 0 01-.475.73c-2.423.521-3.994 4.396-4.396 5.848a.61.61 0 01-.591.451z" fill="#333"/></g></g></svg>