<svg xmlns="http://www.w3.org/2000/svg" width="118" height="150"><circle cx="31.411" cy="53.874" r="21.987" fill="#fff"/><g class="star"><path d="M118.736 93.573c-.284.025-1.248-.898-1.434-1.095-.295-.31-.777-.431-.979-.806-.41-.762-.456-2.377-.57-3.237-.021.769-.652 3.146-1.217 3.589-.807.633-2.176.967-2.176.967s1.678.903 2.109 1.713c.336.631.764 3.785.764 4.963.677-1.896 1.761-5.922 3.503-6.094z" fill="#fff"/><path d="M118.835 93.216c-2.058-.721-2.508-2.932-2.71-4.778-.053-.474-.695-.479-.741 0-.192 2.101-.975 3.634-3.12 4.196-.308.08-.369.521-.09.677 2.491 1.39 2.616 3.714 2.69 6.356.012.43.592.49.728.101.586-1.694 1.219-5.334 3.243-5.837.464-.113.269-.829-.196-.715-2.392.595-3.082 4.396-3.763 6.354.243.033.485.063.729.098-.084-2.99-.291-5.455-3.058-6.996l-.089.676c2.572-.676 3.424-2.313 3.665-4.908h-.741c.266 2.398.646 4.578 3.256 5.492.453.155.645-.56.197-.716z" fill="#333"/></g><g class="star"><path d="M104.799 66.751c-.34.033-2.182-1.285-2.423-1.729-.489-.907-1.423-2.933-1.56-3.95-.024.909-.778 3.744-1.448 4.27-.96.75-2.591 1.148-2.591 1.148s1.998 1.078 2.513 2.043c.401.75 1.338 4.506 1.338 5.906.806-2.258 1.748-7.487 4.171-7.688z" fill="#fcee29"/><path d="M104.896 66.396c-2.279-.621-3.291-3.371-3.724-5.428-.092-.436-.69-.293-.728.102-.233 2.525-1.18 4.381-3.768 5.061-.308.082-.369.521-.089.678 2.816 1.57 3.521 4.55 3.667 7.629.02.426.594.498.729.102.725-2.152 1.266-6.896 3.912-7.429.469-.095.27-.81-.196-.714-3.07.619-3.624 5.551-4.431 7.943l.728.098c-.163-3.443-.917-6.529-4.033-8.27-.028.227-.06.451-.089.678 3.032-.797 4.027-2.715 4.313-5.774-.244.03-.485.063-.729.099.49 2.322 1.694 5.25 4.242 5.94.462.124.657-.59.196-.715z" fill="#333"/></g><path d="M38.664 12.604a.615.615 0 01-.506-.263 14.121 14.121 0 01-2.381-10.528.622.622 0 01.712-.507.622.622 0 01.506.714 12.88 12.88 0 002.174 9.612.617.617 0 01-.505.972zM31.156 23.173a.63.63 0 01-.403-.146 13.075 13.075 0 00-8.56-3.145h-.005a.616.616 0 01-.005-1.23h.117a14.2 14.2 0 019.259 3.438.619.619 0 01.064.871.606.606 0 01-.467.212zM33.998 16.499a.609.609 0 01-.402-.15L26.085 9.88a.617.617 0 11.806-.934l7.511 6.469a.617.617 0 01-.404 1.084zM25.188 8.909a.624.624 0 01-.404-.148l-1.39-1.198a.616.616 0 11.808-.933l1.39 1.197a.618.618 0 01.063.871.62.62 0 01-.467.211z" class="st1" fill="#333"/><g><g class="hand"><path fill="#fde0d2" d="M53.967 69.054h14.658v18.584H53.967z"/><path d="M69.119 88.134H53.473V68.563h15.646v19.571zm-14.658-.988h13.67v-17.6h-13.67v17.6z" fill="#333"/></g><path d="M40.792 34.503s-8.51 20.297.562 30.279c4.227 4.646 12.864 4.975 12.864 4.975L46.33 46.284l-5.538-11.781z" fill="#936b41"/><path d="M54.914 70.278l-.715-.027c-.361-.014-8.895-.391-13.211-5.137-9.178-10.1-1.004-29.963-.651-30.805l.429-1.021 6.033 12.84 8.115 24.15zM40.838 35.761c-1.565 4.279-6.701 20.348.882 28.689 3.341 3.674 9.66 4.561 11.794 4.76l-7.643-22.74-5.033-10.709z" fill="#333"/><path d="M50.561 51.491a6.353 6.353 0 00-7.815-4.427 6.352 6.352 0 00-4.424 7.813c.5 1.803 1.71 3.312 3.312 4.262 1.32.781 3.657 1.594 5.209 1.396 3.389-.425 4.425-6.493 3.718-9.044z" fill="#fde0d2"/><path d="M46.341 61.063c-1.598 0-3.704-.753-4.959-1.494-1.755-1.041-3.01-2.658-3.536-4.557a6.785 6.785 0 01.641-5.197 6.802 6.802 0 014.127-3.225 6.855 6.855 0 011.83-.25 6.862 6.862 0 016.593 5.021c.544 1.963.145 5.545-1.319 7.741-.746 1.12-1.719 1.786-2.812 1.927a4.833 4.833 0 01-.565.034zm-1.898-13.734c-.526 0-1.054.072-1.566.213a5.816 5.816 0 00-3.532 2.76 5.808 5.808 0 00-.547 4.447c.457 1.647 1.554 3.06 3.087 3.967 1.14.677 3.036 1.357 4.456 1.357.152 0 .3-.009.439-.025.812-.102 1.523-.604 2.115-1.492 1.257-1.889 1.664-5.217 1.188-6.932a5.868 5.868 0 00-5.64-4.295z" fill="#333"/><path d="M72.811 51.491a6.353 6.353 0 017.814-4.427 6.354 6.354 0 014.425 7.813c-.937 3.381-4.769 6.566-8.149 5.629-3.38-.933-5.027-5.636-4.09-9.015z" fill="#fde0d2"/><path d="M78.139 61.169c-.469 0-.93-.062-1.369-.184-1.727-.479-3.143-1.855-3.988-3.878-.768-1.839-.936-3.985-.447-5.747a6.868 6.868 0 016.594-5.021c.616 0 1.231.084 1.829.25a6.792 6.792 0 014.13 3.224 6.811 6.811 0 01.641 5.198c-.827 2.974-3.992 6.158-7.39 6.158zm.788-13.84a5.875 5.875 0 00-5.642 4.295c-.432 1.555-.279 3.463.406 5.102.728 1.738 1.914 2.914 3.341 3.311.354.098.727.146 1.104.146 2.672 0 5.62-2.486 6.438-5.432a5.812 5.812 0 00-.549-4.447 5.83 5.83 0 00-3.533-2.76 5.82 5.82 0 00-1.565-.215z" fill="#333"/><path d="M62.307 21.255H61.05c-11.355 0-19.22 9.205-19.22 20.561 0 3.154.46 6.508 1.042 9.598.823 4.379 1.549 9.334 3.729 13.312.92 1.677 1.617 2.888 3.104 4.067 2.479 1.971 4.983 4.795 8.028 5.881 3.389 1.207 7.371.453 10.312-1.391 1.988-1.244 3.885-2.771 5.461-4.516.819-.904 1.801-1.805 2.545-3.043 4.783-7.957 5.473-23.911 5.473-23.911-.001-11.353-7.865-20.558-19.217-20.558z" fill="#fde0d2"/><path d="M61.248 75.753a10.965 10.965 0 01-3.68-.615c-2.305-.82-4.258-2.553-6.146-4.227-.698-.617-1.358-1.203-2.023-1.732-1.515-1.205-2.23-2.396-3.23-4.217-1.978-3.607-2.792-8.062-3.511-11.992-.09-.493-.18-.982-.271-1.467-.706-3.758-1.051-6.928-1.051-9.688 0-12.002 8.476-21.055 19.714-21.055h1.257c11.237 0 19.711 9.053 19.711 21.055-.027.678-.75 16.189-5.543 24.166-.6 1-1.355 1.799-2.021 2.5-.198.211-.393.416-.579.62-1.526 1.688-3.451 3.276-5.565 4.601-2.115 1.321-4.622 2.051-7.062 2.051zm-.198-54.004c-10.676 0-18.726 8.625-18.726 20.063 0 2.7.338 5.812 1.033 9.507.091.482.182.977.272 1.473.738 4.045 1.503 8.229 3.404 11.693.937 1.705 1.582 2.809 2.979 3.92a50.633 50.633 0 012.064 1.768c1.818 1.611 3.698 3.277 5.822 4.035 1.037.369 2.163.557 3.349.56 2.258 0 4.578-.677 6.535-1.901 2.038-1.275 3.892-2.808 5.356-4.426.191-.212.393-.423.596-.639.662-.7 1.348-1.422 1.894-2.33 4.662-7.758 5.396-23.521 5.401-23.68 0-11.418-8.051-20.043-18.725-20.043H61.05z" fill="#333"/><g><ellipse transform="rotate(-1.696 70.874 53.448)" cx="70.896" cy="53.463" rx="1.716" ry="2.193" fill="#333"/><ellipse transform="rotate(-1.696 53.554 52.955)" cx="53.64" cy="53.038" rx="1.718" ry="2.194" fill="#333"/><path d="M74.545 48.327c-1.672-1.439-3.98-1.799-5.579-.056-.43.47.267 1.171.698.698 1.22-1.332 2.906-1.045 4.184.057.478.413 1.179-.281.697-.699zM50.904 49.026c1.275-1.102 2.964-1.389 4.185-.057.432.473 1.128-.229.698-.698-1.6-1.743-3.909-1.386-5.581.056-.483.418.219 1.112.698.699zM62.141 53.413a11.55 11.55 0 001.605 4.271c.085.139.178.268.27.396.284.396-.063.072.047-.223-.295.797-1.23 1.286-1.957 1.564-.588.229-.334 1.181.263.951.733-.281 2.975-1.381 2.655-2.539-.08-.287-.447-.68-.666-1.047-.664-1.119-1.053-2.361-1.266-3.643-.106-.622-1.056-.353-.951.27zM62.006 67.03c-.04 0-.08 0-.119-.002-2.411-.053-4.339-1.654-4.299-3.576a.511.511 0 01.504-.484c.273.006.49.232.484.504-.029 1.38 1.465 2.531 3.331 2.568.922.022 1.799-.234 2.456-.721.617-.457.966-1.063.979-1.705a.484.484 0 01.506-.484c.271.006.488.23.481.504-.021.957-.511 1.836-1.38 2.48-.803.594-1.844.916-2.943.916z" fill="#333"/></g><g><path d="M75.415 58.702c-.001.982-1.56 1.776-3.479 1.773-1.924-.004-3.479-.801-3.479-1.777.002-.984 1.563-1.781 3.482-1.777 1.92.002 3.477.801 3.476 1.781z" fill="#fbcab9"/></g><g><path d="M55.819 58.366c-.001.982-1.559 1.775-3.479 1.773-1.924-.002-3.48-.801-3.478-1.777.001-.982 1.559-1.779 3.479-1.777 1.922.004 3.48.801 3.478 1.781z" fill="#fbcab9"/></g><g><path d="M41.387 40.255a.492.492 0 01-.2-.944c2.249-.989 2.999-2.392 3.246-3.138 2.028-6.123 4.391-9.598 7.023-10.326 1.804-.502 3.013.52 3.064.563.205.178.229.49.052.697a.496.496 0 01-.693.055c-.042-.035-.895-.724-2.182-.355-1.572.451-3.947 2.494-6.327 9.682-.298.9-1.187 2.586-3.785 3.729a.602.602 0 01-.198.037z" fill="#333"/></g><g><path d="M41.848 48.229c-.069.011-3.686-7.709-.143-15.979 2.2-5.135 7.021-11.939 13.505-9.307.794-.867 1.401-2.229 2.391-2.875 2.145-1.41 4.353-.482 6.608-.209 2.52.301 4.911 1.303 7.064 2.609 7.434 4.523 12.053 12.16 15.19 20.041.964 2.418 2.668 4.675 2.981 7.266.367 3.036.238 6.219-.799 9.123-.603 1.688-1.436 3.115-2.521 4.531-2.011 2.623-5.84 4.607-8.728 6.091-.685.353-1.385.677-2.108.938-.372.138-3.888 1.303-4.097 1.562 0 0 15.039-17.149 2.623-27.666-3.43-2.903-7.528-4.509-11.125-7.104-1.887-1.361-3.429-2.682-4.481-4.791-.409-.82-.783-1.939-1.605-2.453-.367-.229-.728-.303-1.151-.205-.312.07-1.331.611-1.354.963.002.001-1.124 15.915-12.25 17.465z" fill="#fff"/></g><g><path d="M41.848 50.146c-.069.011-3.686-7.712-.143-15.979 2.2-5.135 7.021-11.938 13.505-9.31.794-.864 1.401-2.226 2.391-2.875 2.145-1.409 4.353-.479 6.608-.211 2.52.306 4.911 1.306 7.064 2.614 7.434 4.521 12.053 12.158 15.19 20.041.964 2.416 2.668 4.672 2.981 7.263.367 3.039.238 6.222-.799 9.123-.603 1.688-1.426 2.64-2.512 4.054-2.011 2.623-14.252 5.893-14.461 6.15 0-.002 13.629-18.577 2.748-26.635-3.611-2.672-8.51-4.992-12.105-7.59-1.885-1.361-3.054-2.398-4.106-4.51-.409-.818-.783-1.414-1.605-1.932-.367-.229-.728-.303-1.151-.204-.312.071-1.331 2.185-1.354 2.532.001.006-1.125 15.92-12.251 17.469z" fill="#936b41"/></g><g><path d="M78.887 58.515a.495.495 0 01-.442-.717c5.152-10.102-2.694-16.434-9-21.52-2.107-1.703-4.101-3.311-5.313-4.854-4.138-5.258-6.293-5.789-7.209-5.635-.855.141-1.148.949-1.16.984a.496.496 0 01-.626.305.492.492 0 01-.31-.623c.019-.055.479-1.389 1.915-1.639 2.009-.354 4.759 1.666 8.166 5.998 1.144 1.452 3.092 3.023 5.155 4.689 6.234 5.031 14.776 11.924 9.26 22.738a.482.482 0 01-.436.274z" fill="#333"/></g><g><path d="M40.369 43.446a.494.494 0 01-.039-.986c9.268-.738 12.981-12.076 13.018-12.19a.494.494 0 01.941.302c-.037.118-3.948 12.084-13.88 12.877-.013-.003-.027-.003-.04-.003z" fill="#333"/></g><g><path d="M71.521 71.689a.223.223 0 00.039-.034l-.752-.643.022-.023c.382-.439 8.026-9.371 7.362-18.086-.266-3.471-1.846-6.453-4.696-8.869-1.913-1.621-4.095-2.861-6.203-4.061-1.631-.928-3.315-1.887-4.892-3.021-2.078-1.498-3.579-2.854-4.635-4.972-.081-.161-.159-.334-.241-.515-.316-.688-.645-1.403-1.185-1.739-.269-.169-.491-.209-.776-.144-.209.047-.83.396-.98.582-.1 1.137-1.65 16.316-12.67 17.852l-.068.005h-.266l-.157-.231c-.044-.066-3.861-7.826-.174-16.435 1.024-2.394 4.853-10.192 11.099-10.192.895 0 1.805.164 2.711.492.197-.248.391-.527.592-.818.481-.701.979-1.426 1.677-1.883.862-.566 1.82-.844 2.929-.844.855 0 1.715.161 2.545.313.48.09.979.186 1.465.242 2.361.283 4.807 1.186 7.265 2.682 6.499 3.953 11.532 10.589 15.393 20.281.323.812.748 1.631 1.156 2.424.808 1.563 1.642 3.179 1.856 4.961.422 3.486.146 6.634-.823 9.35-.587 1.641-1.41 3.125-2.595 4.668-2.104 2.742-6.026 4.758-8.893 6.229-.809.412-1.498.723-2.167.963l-.453.158c-2.098.721-3.27 1.161-3.485 1.308zM55.807 28.567c.365 0 .712.104 1.059.318.792.496 1.2 1.386 1.561 2.17.076.168.151.332.227.484.966 1.934 2.374 3.197 4.331 4.609 1.529 1.104 3.192 2.051 4.801 2.965 2.148 1.223 4.371 2.483 6.354 4.164 3.062 2.594 4.758 5.805 5.043 9.549.539 7.078-4.102 14.227-6.391 17.283a114.73 114.73 0 011.896-.666l.436-.15c.631-.229 1.283-.52 2.054-.914 2.782-1.43 6.593-3.387 8.56-5.951 1.121-1.461 1.899-2.857 2.449-4.396.918-2.57 1.178-5.564.772-8.9-.194-1.604-.951-3.071-1.754-4.625-.42-.812-.854-1.653-1.195-2.512-3.776-9.488-8.681-15.965-14.989-19.803-2.336-1.423-4.647-2.277-6.867-2.546a24.222 24.222 0 01-1.528-.25c-.821-.153-1.599-.3-2.363-.3-.922 0-1.681.218-2.387.682-.534.352-.978.995-1.406 1.616-.279.407-.568.827-.892 1.181l-.231.252-.32-.127c-.896-.365-1.796-.552-2.674-.552-5.642 0-9.226 7.345-10.19 9.597-3.086 7.199-.621 13.842-.026 15.24C52.409 45.218 53.6 30.183 53.611 30.032c.054-.787 1.574-1.373 1.736-1.41.153-.035.309-.055.46-.055z" fill="#333"/></g><g><path d="M37.188 54.331a3.003 3.003 0 00-.404.156c-.046.021-.088.047-.132.068a2.127 2.127 0 00-.221.137c-.048.031-.099.063-.144.1a3.116 3.116 0 00-.247.213l.002-.276c.005-1.543.031-3.084.041-4.627.02-1.146.039-2.271.039-2.509 0-.104-.025-.332-.066-.629-.007-.237-.008-.477-.016-.715-.109-1.693-.273-6.445-3.168-3.988l.115.47c-.039-.009-.073-.019-.095-.022a.397.397 0 01-.127-.109c-.086-1.205-.315-2.896-1.15-3.064-.709-.109-1.475.816-1.746 1.311l.023.095-.323.043c-.132-.752-.39-1.42-.903-1.502-.709-.108-1.256.983-1.42 1.476l.107.457-.205.075c-.076-.338-.2-.603-.395-.696-.709-.326-1.474.328-1.747.819-.546.817-.711 2.021-.874 3.005-.328 1.639-.437 3.221-.765 4.859-.383 2.293-.765 4.645-.819 6.938-.053 2.211-.714 4.424.383 6.5l3.94 1.873 1.745.959 3.49.961c.492-.875.929-1.227 1.584-1.99 1.42-1.639 2.294-3.496 3.441-5.354a102.742 102.742 0 001.856-3.276c.273-.437.383-.545.383-1.09.002-1.158-1.036-.994-2.182-.668z" fill="#fde0d2"/><path d="M38.172 102.561c-.35.175-24.575 5.14-26.698 5.104-.884-.016-1.7-.135-2.576 0-.736.115-1.281.231-2.038.047-3.107-.768-4.95-6.025-4.612-9.34.488-4.803 3.06-9.226 5.636-13.197 2.946-4.547 6.074-9.506 9-14.067a53.952 53.952 0 003.36-6.106c.424-.918.817-1.787 1.133-2.748.18-.543.786-1.363 1.619-.315.367.461.581.804 1.115 1.108 1.117.644 2.184 1.342 3.367 1.849a13.54 13.54 0 003.26.927c.527.082 1.07.09 1.59.207.503.109 1.261.161 1.291.791.024.514-.376 1.379-.585 1.85-.438.979-1.027 1.918-1.496 2.889a66.604 66.604 0 01-1.814 3.438c-2.046 3.668-4.273 7.234-6.499 10.797-1.444 2.311-3.145 4.615-4.283 7.1l-.026.061c1.472-.259 9.985-1.727 12.915-3.709 2.81-1.902 5.249-4.109 8.585-4.904 3.172-.758 7.769-1.154 11.015-1.406 3.123-.244 6.636 2.078 9.777 1.838 2.562-.197 4.138-2.215 6.655-3.061 1.58-.531 2.89-.623 4.378.182 1.396.756 2.528 1.816 4.044 2.384 2.22.829 4.697.642 6.85 1.688 2.536 1.234 4.485 2.828 6.518 4.842 2.895 2.865 11.445 17.574 14.736 21.479 1.889 2.241 3.891 5.762 5.332 8.42 1.928 3.549-.104 6.143-1.812 9.344-2.195 4.125-3.39 5.877-6.536 9.35-2.383 2.63-3.671 5.32-5.932 8.055-.812.979-2.01 1.861-2.693 2.889l-11.124-3.533 11.735-21.723s2.269-3.797 1.875-4.061c-.394-.262-7.853-7.198-7.853-7.198l-2.225-1.896-5.366 34.092-39.001-.783-3.533-28.271.916-14.413z" fill="#fff"/><path d="M63.479 91.349c.162-.293 1.045-1.867 1.338-2.324l.072-2.949-2.158-.613-.504-.106-1.677-.331-1.166 1.916.144 1.148c.324.686 1.476 3.275 1.476 3.275l.18.004c-.145 3.668-1.078 7.338-1.512 10.971-.287 2.484-1.902 8.684-2.262 11.127-.072.289 2.171 4.537 2.529 5.148.504.793.35 1.41.961 2.094.574-.18 5.061-8.201 5.061-8.201l-2.482-21.159z" fill="#f16362"/><path d="M38.6 96.964c-1.688 7.865-2.482 16.207-1.74 24.224.733 7.916 2.299 15.86 2.468 23.817.005.183.114.293.272.357 2.269.93 5.3.359 7.72.547 3.137.237 6.256.521 9.4.674 5.334.256 10.728 1.012 16.066.877 1.879-.049 6.31.017 7.046-2.315.576-1.819.811-3.798 1.148-5.67 1.265-6.998 2.383-14.021 3.49-21.048.473-3.008.94-6.018 1.387-9.029.123-.828.757-2.654.439-3.488-.167-.443-.884-.252-.714.195.339.896-.56 3.898-.729 5.036-.553 3.651-1.127 7.3-1.711 10.944-1.129 7.068-2.199 14.166-3.633 21.181-.127.614-.236 1.253-.447 1.847-.666 1.891-5.83 1.61-7.361 1.629-2.363.025-4.701-.307-7.057-.48-3.795-.275-7.604-.379-11.403-.598-3.417-.195-6.802-.646-10.228-.676-1.173-.01-2.911.533-2.979-.975a65.292 65.292 0 00-.224-2.961c-.444-4.87-1.098-9.723-1.652-14.584-.463-4.061-1.069-8.223-.921-12.318.204-5.602.902-11.516 2.077-16.986.1-.47-.614-.667-.714-.2z" fill="#333"/><path d="M36.808 103.03c-2.107.719-4.609.836-6.795 1.2a752.344 752.344 0 01-12.298 1.968c-1.599.241-3.199.479-4.804.678-1.46.182-2.927-.029-4.374.17-1.889.26-3.229.273-4.337-1.451-.719-1.119-1.096-2.455-1.439-3.725-.637-2.357-.825-4.783-.177-7.146 1.142-4.154 3.587-8.038 5.802-11.689 2.53-4.172 5.271-8.215 7.98-12.271 1.819-2.723 3.867-5.457 5.232-8.445.409-.896 1.084.666 1.667 1.178.665.584 1.323 1.047 2.125 1.428 2.332 1.105 5.181 1.519 7.698 2.056-.405-.089.003-.815-.277-.271l-.375.729c-.453.881-.907 1.758-1.361 2.635a1036.324 1036.324 0 01-4.316 8.234 494.79 494.79 0 01-4.824 8.926c-1.085 1.949-2.115 4.1-3.525 5.846-.234.291-.019.689.36.619 4.005-.758 8.143-1.98 11.82-3.736 2.462-1.174 4.486-3.17 6.888-4.48 3.192-1.745 7.32-1.872 10.857-2.204 1.663-.155 3.271-.36 4.931-.056 1.53.283 3.008.941 4.495 1.388 2.612.784 4.688.226 6.939-1.188 1.622-1.018 3.155-1.898 5.123-2.016 1.864-.109 3.753 1.752 5.282 2.604 1.174.654 2.576.848 3.879 1.059 2.17.354 3.957.988 5.843 2.158 4.233 2.627 6.812 6.709 9.47 10.773 2.639 4.031 5.157 8.146 7.92 12.096 1.221 1.746 2.607 3.357 3.779 5.143.875 1.33 1.661 2.721 2.438 4.105 1.473 2.621 1.741 4.684.436 7.422a59.624 59.624 0 01-4.454 7.748c-1.864 2.74-4.292 5.021-6.183 7.748-.777 1.119-1.521 2.266-2.314 3.373-1.102 1.533-2.549 2.695-3.695 4.176-.289.373.231.902.523.523 1.869-2.412 3.951-4.463 5.672-7.029 1.885-2.811 4.254-5.191 6.268-7.896 1.75-2.354 3.049-5.021 4.459-7.576 1.119-2.025 2.068-4.514 1.01-6.777-2.219-4.733-5.5-8.646-8.4-12.936-2.768-4.09-5.352-8.303-8.085-12.416-2.396-3.604-4.827-6.652-8.468-9.115-2.61-1.766-5.354-1.971-8.332-2.69-2.754-.668-4.787-3.765-7.86-3.177-2.875.552-4.858 2.683-7.614 3.459-3.262.922-6.881-1.93-10.227-1.881-5.705.084-11.856.879-16.637 4.131-2.838 1.929-5.278 3.455-8.561 4.552-2.409.806-4.899 1.53-7.396 2.004l.36.619c3.297-4.084 5.523-9.388 7.973-13.991a993.511 993.511 0 006.678-12.781c.103-.201.023-.494-.222-.545-1.842-.388-3.668-.84-5.485-1.328-2.599-.697-4.11-2.146-6.205-3.672-.205-.15-.475.014-.545.221-.921 2.713-2.963 5.225-4.529 7.582-2.547 3.842-5.136 7.654-7.596 11.553-2.247 3.563-4.486 7.223-6.119 11.115-1.562 3.729-1.735 6.99-.673 10.926.459 1.699 1.182 3.561 2.547 4.73 1.375 1.182 4.004.283 5.589.332 2.678.084 5.386-.494 8.025-.893 3.952-.6 7.896-1.241 11.838-1.896 2.186-.363 4.688-.482 6.796-1.201.446-.168.253-.883-.2-.729z" fill="#333"/><path d="M57.639 88.273c.507 1.084.988 2.183 1.475 3.274.052.117.2.183.319.186l2.447.033a.364.364 0 00.32-.184c.229-.41.46-.82.692-1.229.207-.36.715-.927.726-1.354l.071-2.928a.37.37 0 00-.271-.357c-.709-.201-1.418-.401-2.127-.604-.717-.203-1.109.023-1.796.284-.729.274-1.072.476-1.646 1.005-.563.52-.354.945-.262 1.686.059.469.801.475.741 0l-.098-.787c-.041-.324.061-.299-.114-.139l.428-.396c.481-.441.775-.514 1.582-.816.916-.347 1.94.153 3.097.48a22.301 22.301 0 01-.272-.355c-.022.918-.046 1.834-.067 2.754-.008.309-.428.805-.628 1.156-.161.277-.319.562-.479.846-.252.445-.236.193.078.197-.475-.006-.949-.014-1.424-.021-.257-.004-.514-.008-.771-.01-.43-.008.107.207.055.088-.474-1.062-.941-2.129-1.436-3.184-.204-.43-.842-.053-.64.375z" fill="#333"/><path d="M59.243 91.362c-.272 5.33-1.466 10.641-2.324 15.902-.332 2.039-1.418 4.863-.599 6.852 1.04 2.521 2.248 5.135 3.931 7.295.101.127.319.135.449.057.903-.541 1.577-1.846 2.163-2.672a138.765 138.765 0 002.697-3.977c.178-.271-.017-.844-.058-1.123l-.579-4.02-2.688-18.631c-.068-.471-.781-.27-.715.197.635 4.396 1.269 8.791 1.901 13.188.397 2.747.793 5.495 1.188 8.245.308 2.123.39 1.656-.774 3.393a104.196 104.196 0 01-2.417 3.465c-.824 1.127-.654 1.443-1.439.225a22.388 22.388 0 01-1.143-1.995c-.734-1.451-1.47-2.931-2.047-4.451-.424-1.116.473-3.575.658-4.726.921-5.696 2.238-11.457 2.532-17.227.03-.473-.712-.471-.736.003z" fill="#333"/><g><path d="M48.763 83.396c1.936 3.325 2.927 5.151 5.506 9.606 2.422-3.664 6.48-8.277 6.48-8.277s-4.995-5.057-7.824-7.322l-4.162 5.993z" fill="#fff"/><path d="M48.444 83.583c1.852 3.193 3.658 6.414 5.505 9.606.146.255.487.228.64 0 1.941-2.875 4.134-5.591 6.423-8.2.133-.152.148-.373 0-.523-2.509-2.533-5.063-5.064-7.825-7.323-.194-.157-.437-.136-.582.073l-4.16 5.994c-.274.396.369.764.639.373l3.002-4.322.825-1.188c.487-.701.057-.158.151-.08 1.276 1.043 2.475 2.188 3.671 3.319 1.035.979 2.054 1.979 3.065 2.987.222.219.44.439.659.66-.307-.312.132-.615-.456.067-2.146 2.487-4.213 5.062-6.052 7.789h.64c-1.848-3.194-3.653-6.414-5.506-9.606-.239-.413-.88-.038-.639.374z" fill="#333"/><g><path d="M72.797 83.271c-1.936 3.329-3.246 5.178-5.824 9.631-3.019-3.496-6.16-8.297-6.16-8.297s4.994-5.061 7.823-7.326l4.161 5.992z" fill="#fff"/><path d="M72.479 83.085a229.818 229.818 0 01-3.012 4.939 210.27 210.27 0 00-1.486 2.434c-.982 1.635-1.006 1.912-2.252.354-1.393-1.742-2.682-3.572-3.939-5.414l-.41-.607c-.341-.508-.02-.213-.273.045a186.08 186.08 0 014.666-4.535 84.32 84.32 0 012.308-2.078c.582-.504.09-.971.571-.273l3.828 5.512c.271.393.914.021.641-.373-1.389-1.998-2.773-3.996-4.162-5.994-.146-.209-.389-.232-.582-.072-2.764 2.258-5.314 4.789-7.822 7.324-.113.113-.15.311-.059.447 1.908 2.904 3.97 5.725 6.217 8.375.156.186.469.117.582-.076 1.891-3.24 3.93-6.393 5.826-9.631.238-.416-.402-.789-.642-.377z" fill="#333"/></g></g><g><path d="M85.143 112.651c2.869 2.166 4.914 5.104 7.594 7.49 2.056 1.834-.15 3.182-.528 5.084-.248 1.255-.881 2.455-1.431 3.598-2.885 5.994-6.646 11.525-9.998 17.26-.241.414.398.785.64.375 3.657-6.258 8.031-12.313 10.812-19.037.604-1.461.885-2.938 1.779-4.27.874-1.303.764-1.945-.279-3.089-1.375-1.507-3.021-2.64-4.267-4.284-1.122-1.484-2.466-2.65-3.944-3.77-.386-.284-.753.358-.378.643z" fill="#333"/></g><g><path d="M28.818 61.814c-.052-3.019 2.991-3.052 5.081-3.728 1.803-.582 1.824-2.996 3.946-3.543 2.043-.527-.476 3.674-.551 3.805-.554.975-1.142 1.93-1.701 2.896-1.001 1.74-2.364 3.207-3.325 4.961-.229.42.41.791.639.373.71-1.293 1.701-2.377 2.515-3.607 1.075-1.625 2.015-3.375 2.979-5.066.303-.531 2.634-4.143.31-4.168a4.435 4.435 0 00-2.804.893c-.371.273-.647.721-.91 1.09-1.028 1.441-1.805 1.861-3.468 2.014-1.88.17-3.481 2.283-3.45 4.084.007.474.748.474.739-.004zM23.087 62.282c-.637-2.531-.254-5.031-.069-7.604.236-3.311.881-6.703 1.473-9.971.064-.416.139-.832.221-1.246l.156-.629c.148-1.254.816-1.49 2.002-.707.075.65.019 1.342-.048 1.992-.222 2.192-.096 4.406-.383 6.608-.062.474.68.468.741 0 .35-2.683.44-5.427.45-8.134.008-1.803-.963-2.932-2.597-1.631-.938.746-1.082 2.488-1.258 3.547a561.08 561.08 0 00-1.178 7.461c-.507 3.363-1.063 7.17-.227 10.51.118.464.832.269.717-.196z" fill="#333"/><path d="M27.604 41.05c.588-1.455 1.585-.316 1.691.729.073.715.039 1.461.039 2.178v7.482c0 .477.74.477.74 0v-7.482c0-1.195.161-2.732-.358-3.855-.858-1.857-2.276-.607-2.827.752-.179.442.538.631.715.196z" fill="#333"/><path d="M30.188 41.028c1.326-.766 2.013-.654 2.061.327.077.47.13.938.157 1.411.062.834.068 1.671.082 2.507.041 2.271-.034 4.548-.041 6.817-.002.479.739.479.74 0 .013-3.737.485-7.75-.335-11.43-.502-2.248-2.33-1.455-3.304-.01-.267.402.375.771.64.378z" fill="#333"/><path d="M33.059 42.581c2.368-1.769 2.498 1.922 2.59 3.34.199 3.047.032 6.125.021 9.176-.003.479.737.479.74 0 .005-1.439 1.479-17.045-3.725-13.152-.377.279-.009.923.374.636z" fill="#333"/></g></g><g><path d="M45.536 86.493c-.446 3.254-.927 6.502-1.4 9.752-.15 1.033-1.114 3.588-.238 4.442l5.425 5.304c-.07-.068.099-.455-.258.287-.307.639-.614 1.275-.921 1.918l-1.436 2.986a.383.383 0 00.058.449c3.87 4.469 7.711 9.051 11.953 13.174.342.334.866-.189.524-.521-3.564-3.463-6.803-7.287-10.076-11.021a284.862 284.862 0 01-1.516-1.734c-.539-.621-.403.236 0-.604l2.356-4.905c.073-.149.068-.325-.058-.448l-3.396-3.318-1.968-1.924c-.554-.541-.331.188-.235-.467.641-4.389 1.295-8.775 1.898-13.17.066-.469-.646-.672-.712-.2z" fill="#333"/></g><g><path d="M51.02 89.907c.986 8.523 3.394 16.674 5.51 24.963.119.463.833.268.715-.195-2.099-8.223-4.506-16.309-5.483-24.768-.056-.469-.797-.471-.742 0z" fill="#333"/></g><g><path d="M73.936 87.802c-1.42 9.158-5.125 18.259-8.992 26.609-.199.432.438.809.641.375 3.9-8.426 7.635-17.561 9.066-26.787.072-.467-.643-.668-.715-.197z" fill="#333"/></g><g><path d="M77.208 85.905c1.541 4.979 1.896 10.377 2.302 15.551.045.565.086 1.135.121 1.701.018.25.352-.336.066-.131-.286.205-.572.414-.858.618l-4.835 3.491c-.732.529-.67.83-.779 1.746l-.742 6.107c-.063.541-.408 1.432-.024 1.146-.618.459-1.229.928-1.843 1.395-2.395 1.828-4.771 3.688-7.01 5.707-.355.318.17.842.523.521 2.316-2.086 4.783-4.006 7.262-5.896.844-.646 1.594-.896 1.721-1.945l.765-6.299c.072-.599.146-1.195.217-1.791-.047.385-.106.231.286-.054.389-.278.776-.56 1.164-.84l4.529-3.271c.604-.437.227-1.58.179-2.209-.397-5.226-.771-10.719-2.327-15.748-.143-.451-.859-.256-.717.201z" fill="#333"/></g></g></svg>