<svg xmlns="http://www.w3.org/2000/svg" width="140" height="152"><path d="M127.019 94.208c-.354.033-2.256-1.328-2.504-1.791-.508-.936-1.473-4.086-1.611-5.143-.025.939-.807 4.928-1.498 5.473-.994.775-2.68 1.188-2.68 1.188s2.064 1.114 2.598 2.109c.414.775 1.383 4.658 1.383 6.107.831-2.332 1.808-7.736 4.312-7.943z" fill="#fcee29"/><path d="M127.116 93.851c-2.715-.664-3.455-4.332-3.857-6.676-.074-.436-.699-.293-.727.1-.205 2.905-.809 5.487-3.904 6.303-.307.082-.369.521-.09.678 2.912 1.615 3.656 4.711 3.797 7.898.02.424.594.496.729.098.75-2.217 1.305-7.146 4.057-7.686.469-.092.27-.807-.197-.715-3.162.615-3.74 5.742-4.57 8.202.242.032.484.065.729.101-.156-3.558-.949-6.754-4.164-8.539-.029.227-.061.451-.09.678 1.367-.357 2.799-.838 3.383-2.205.629-1.469.953-3.221 1.064-4.812-.242.033-.484.064-.729.1.455 2.635 1.301 6.439 4.377 7.191.46.111.657-.603.192-.716z" fill="#333"/><path d="M110.233 13.782c-.234.021-1.508-.887-1.674-1.197-.338-.625-.982-1.741-1.076-2.445-.018.629-.537 2.305-1.002 2.668-.662.52-1.787.793-1.787.793s1.379.746 1.734 1.411c.275.519.924 2.125.924 3.093.555-1.561 1.208-4.184 2.881-4.323z" fill="#fff"/><path d="M110.331 13.426c-1.391-.341-2.217-2.142-2.492-3.386-.096-.438-.688-.293-.727.1-.156 1.615-.908 2.682-2.52 3.104-.307.082-.367.521-.088.678 1.596.889 2.357 2.369 2.477 4.186a.373.373 0 00.729.098c.479-1.387.92-3.744 2.621-4.061.469-.089.271-.803-.197-.716-2.027.377-2.564 2.929-3.141 4.577.244.033.484.066.729.102-.139-2.111-.996-3.797-2.842-4.822l-.088.676c2.008-.525 2.863-1.76 3.061-3.816-.238.032-.482.064-.727.1.332 1.514 1.346 3.494 3.008 3.902.465.105.662-.61.197-.722z" fill="#333"/><path d="M124.644 41.769c-.234.021-1.508-.889-1.674-1.195-.338-.627-.982-1.742-1.076-2.447-.018.627-.539 2.305-1.002 2.666-.662.521-1.789.793-1.789.793s1.381.746 1.736 1.412c.277.52.924 2.125.924 3.092.554-1.56 1.207-4.183 2.881-4.321z" fill="#fff"/><path d="M124.741 41.411c-1.391-.338-2.219-2.141-2.49-3.385-.096-.438-.691-.293-.729.1-.156 1.617-.908 2.682-2.518 3.104-.309.08-.369.521-.09.678 1.598.889 2.354 2.369 2.477 4.184a.373.373 0 00.729.102c.48-1.39.92-3.746 2.621-4.063.469-.09.27-.803-.195-.717-2.029.379-2.568 2.928-3.141 4.58.242.031.484.064.729.099-.141-2.108-.996-3.798-2.844-4.821-.029.225-.061.45-.088.678 2.008-.527 2.861-1.762 3.061-3.818-.242.031-.48.064-.727.1.334 1.512 1.346 3.496 3.01 3.903.463.104.66-.611.195-.724z" fill="#333"/><path d="M12.212 116.995c-.235.023-1.508-.887-1.674-1.194-.338-.628-.982-2.729-1.076-3.437-.018.627-.538 3.293-1.001 3.656-.663.518-1.789.793-1.789.793s1.38.744 1.735 1.412c.275.516.923 3.109.923 4.077.557-1.557 1.208-5.167 2.882-5.307z" fill="#fcee29"/><path d="M12.311 116.639c-1.755-.536-2.209-2.788-2.49-4.372-.079-.438-.698-.294-.729.098-.144 1.854-.521 3.56-2.519 4.092-.309.082-.368.521-.089.677 1.906 1.069 2.37 3.093 2.476 5.173.021.422.595.497.729.098.486-1.451.834-4.66 2.622-5.049.467-.102.27-.814-.195-.713-2.178.471-2.562 3.838-3.142 5.564.242.031.484.064.729.1-.123-2.43-.649-4.578-2.843-5.813-.029.226-.061.451-.089.678 2.453-.654 2.879-2.424 3.062-4.807l-.729.098c.346 1.925.896 4.244 3.012 4.893.455.137.65-.578.195-.717z" fill="#333"/><g><path d="M137.097 57.655c3.824 1.699 3.146 7.977 1.912 11.682-1.379 4.143-4.564 3.502-10.299 3.502-4.461 0-6.902-.637-10.301 1.488-1.912 1.063-4.779 3.717-6.902 3.504 2.336-1.698 4.797-4.494 1.486-5.732-2.547-.955-4.248.424-4.672-4.459-.215-2.764-1.063-6.584.85-8.707 1.699-1.699 5.734-2.336 8.07-2.123 0-.002 17.733-.002 19.856.845z" fill="#fff"/><path d="M135.954 56.915c3.441 1.795 2.902 6.521 2.188 9.697-.379 1.686-.945 3.334-2.531 4.225-1.412.793-3.416.611-4.977.604-3.375-.023-6.953-.492-10.283.184-3.568.729-6.125 4.75-9.799 4.777.063.229.125.459.189.688 1.135-.859 3.461-2.538 3.273-4.25-.191-1.799-1.963-2.299-3.529-2.559-3.299-.547-2.871-4.492-3.08-7.205-.186-2.361.111-4.586 2.373-5.836 1.596-.881 3.637-1.104 5.416-1.162 3.045-.104 6.143.064 9.188.123 2.365.043 4.73.113 7.094.234 1.471.074 3.162.027 4.57.518.451.156.645-.559.195-.715-3.383-1.17-7.826-.691-11.346-.77-3.42-.074-6.889-.23-10.307-.111-2.322.08-4.857.693-6.637 2.25-2.113 1.848-1.264 5.969-1.018 8.313.178 1.684.182 3.896 1.926 4.74.664.322 1.5.334 2.215.477 4.025.807 1.047 3.979-.711 5.313-.273.209-.217.69.188.688 1.877-.015 3.42-1.104 4.92-2.127 2.125-1.446 4.107-2.683 6.732-2.918 4.236-.38 8.697.771 12.877-.271 2.969-.738 3.777-4.229 4.125-6.849.414-3.153.307-7.041-2.877-8.7-.423-.22-.796.421-.374.642z" fill="#333"/><path d="M114.798 61.106h16.035c.477 0 .477-.742 0-.742h-16.035c-.477 0-.477.742 0 .742z" fill="#333"/><g><path d="M115.011 64.928c3.262-.015 6.521-.175 9.77.214.475.057.469-.688 0-.742-3.248-.388-6.508-.229-9.77-.213-.477.001-.477.743 0 .741z" fill="#333"/></g></g><g><path d="M24.818 84.38c-3.581.617-6.544-1.668-8.335-1.913-.926-.123-3.519-.245-4.69.739-1.808 1.523 3.457 2.531 4.754 3.396l.987 2.221 7.037-.369s1.79-1.543 1.79-1.791c0-.246-1.543-2.283-1.543-2.283z" fill="#f6e4d2"/><path d="M24.818 84.01c-3.325.382-5.599-1.616-8.699-1.952-1.495-.16-4.266-.164-5.008 1.479-.48 1.063 1.376 1.811 2.021 2.068.563.227 2.896.734 3.138 1.277l.944 2.128c.049.11.202.188.32.185 2.229-.117 4.988.207 7.135-.383.665-.186 1.704-1.369 2.013-1.961.355-.684-1.177-2.173-1.544-2.658-.283-.377-.927-.008-.64.375.771 1.021 1.804 1.776.706 2.821-.861.817-.673.694-1.918.761-1.355.071-2.712.145-4.068.215-.506.027-1.013.055-1.52.08-.203-.006-.165.026.112.098-.149-.34-.301-.678-.45-1.016-.384-.859-.437-1.229-1.32-1.594-.632-.262-5.726-1.816-3.19-2.875 1.743-.729 3.854-.255 5.506.428 2.146.887 4.118 1.533 6.464 1.264.467-.054.472-.796-.002-.74z" fill="#333"/><path d="M31.115 89.298c.13-1.286-3.351-4.688-4.461-4.859-2.763-.429-7.705.271-9.235.928-1.326.568-2.455.697-3.877 1.004a13.326 13.326 0 01-3.767.271c-1.773-.125-3.485-.776-5.268-.776-1.111 0-4.813-.123-3.95 1.481.493.985 8.087 3.767 9.074 3.89.204.03 9.734-.359 11.357-.804.216-.06 5.124 4.319 5.124 4.319l5.003-5.454z" fill="#f6e4d2"/><path d="M31.485 89.298c-.147-2.059-2.676-4.242-4.394-5.104-1.133-.566-2.963-.262-4.171-.193-1.767.104-3.583.365-5.276.886-2.605.804-5.096 1.479-7.869 1.384-2.153-.076-4.183-.8-6.362-.773-1.005.013-4.429.316-3.082 2.164 1.145 1.568 4.479 2.33 6.208 2.974 2.033.759 3.337.983 5.463.892 2.875-.127 5.795-.213 8.644-.645 1.333-.199 4.186 3.225 5.207 4.137.146.129.383.152.523 0 1.667-1.818 3.334-3.639 5-5.453.322-.354-.2-.877-.523-.523-1.385 1.513-2.771 3.021-4.155 4.533-.245.268-.492.535-.736.803.077-.084.587.268-.096-.34-1.018-.9-2.039-1.793-3.072-2.674-1.8-1.531-2.212-1.156-4.588-.953-2.734.234-5.485.371-8.229.453-2.062.061-4.751-1.484-6.576-2.281-1.274-.557-3.878-1.961-.916-2.295 2.135-.24 4.223.24 6.312.611 4.062.723 7.704-1.205 11.589-1.867 1.807-.307 4.909-.908 6.642-.041 1.302.652 3.609 2.772 3.72 4.312.029.467.772.469.737-.007z" fill="#333"/><path d="M124.862 127.653c-.412-1.729-9.959-26.174-11.359-29.549-3.291-7.982-14.32-7.736-21.316-10.783l-20.145 1.256c.246-.371-4.199 1.389-6.173 1.729-3.667.631-7.666 2.577-9.966 5.473-2.564 3.229-4.978 4.523-7.504 6.688-1.729 1.482-6.915 4.527-9.383 4.527-.495 0-3.157-4.479-4.076-6.82-1.33-3.385-1.98-6.695-2.985-10.119-.289-.984-.285-3.141-1.6-2.797-.205.055-.732.908-.953 1.104-2.654 2.334-9.214 3.612-9.214 3.612s2.901 16.791 3.643 25.187c.247 2.965 3.334 7.037 5.804 8.766 1.729 1.482 4.814.988 6.543.494 3.317-.602 6.598-1.713 9.829-2.652 2.009-.584 3.956-2.148 6.005-2.516 1.963-.35 2.766-.355 4.316-1.486.701-.514 1.515-1.152 2.071-1.738l.699 3.951c1.117 5.961 1.086 7.572 1.716 10.994.326 1.84.637 3.688.918 5.549.205 1.354.82 2.709.887 4.064.061 1.225-.19 2.621-.265 3.859-.061 1.033-.464 1.697-.621 2.697-.604 3.827 12.444 2.463 14.584 2.463h19.385c2.854 0 5.709-.031 8.561 0 1.834.021 2.492-.572 3.904-1.738 1.139-.939 2.529-2.127 2.104-3.783-.184-.711-.465-.953-.51-1.766-.029-.51-.004-1.029 0-1.539.01-1.211.004-2.506.109-3.711.957-.265 1.598-.531 2.729-.549 5.762-.988 11.936-3.787 12.266-6.75.161-1.238.161-2.967-.003-4.117z" fill="#fff"/><path d="M111.528 121.851c-2.617.077-4.797.928-7.102 2.105-3.898 1.996-8.6 1.947-12.873 2.453-2.563.305-5.674.285-8.107 1.217-1.225.467-1.059 2.5-1.031 3.5.053 2.006-.045 5.902 2.396 6.306 3.961.649 7.998.978 11.996 1.317 2.941.25 5.816.291 8.764.244 3.594-.055 6.934.07 10.42-.871 2.422-.653 5.113-1.653 7.088-3.246 1.861-1.508 2.232-2.852 2.275-5.198.055-2.866-1.521-5.229-1.938-8.019-.496-3.326-2.496-5.977-3.508-9.141-1.412-4.427-3.697-8.498-5.377-12.84-1.074-2.773-2.357-4.932-4.813-6.684-5.045-3.604-11.838-3.688-17.438-6.033-.439-.184-.629.533-.195.717 4.766 1.993 10.004 2.495 14.748 4.564 2.42 1.058 4.471 2.674 5.824 4.959 1.832 3.094 2.652 6.854 4.283 10.078 1.549 3.062 2.271 6.435 3.895 9.443.771 1.432 1.416 2.799 1.754 4.395.342 1.611.451 2.992 1.123 4.529.814 1.859.961 3.473.844 5.463-.107 1.91-1.539 2.973-3.035 3.922-2.436 1.547-6.232 3.068-9.176 3.115-6.766.104-13.311.117-20.057-.564a183.958 183.958 0 01-6.324-.729 25.286 25.286 0 01-1.613-.259c-.549-.106-.717-1.892-.809-2.336a20.953 20.953 0 01-.404-3.659c-.049-1.928.771-2.507 2.615-2.709 3.797-.418 7.576-.98 11.375-1.389 2.336-.248 4.582-.557 6.771-1.465 2.648-1.096 4.658-2.362 7.627-2.453.479-.006.481-.748.002-.732zM72.399 88.479c-.006-.02-.01-.031-.012-.047a.37.37 0 00-.357-.271c-2.065.063-4.225 1.377-6.262 1.787-3.66.738-7.024 2.297-9.646 5.002-2.724 2.813-5.436 5.332-8.564 7.711-1.474 1.119-7.481 5.314-8.938 3.408-2.103-2.748-3.468-6.086-4.465-9.361-.681-2.23-1.202-4.51-1.845-6.754-.265-.92-.204-2.08-.932-2.805-.272-.273-.866-.414-1.212-.211-1.083.633-1.784 1.941-2.903 2.659-2.006 1.284-4.706 1.901-7.076 2.005-.257.012-.398.227-.356.469a610.878 610.878 0 011.734 10.672c.482 3.139.938 6.281 1.342 9.433.312 2.438.196 5.286 1.267 7.548 1.213 2.561 2.999 4.82 5.272 6.521 2.311 1.729 5.168.854 7.731.354 3.742-.729 7.829-1.776 11.257-3.474 3.175-1.567 6.729-1.811 9.697-3.795.396-.264.025-.904-.374-.639-1.051.701-2.638 1.479-3.812 1.822-1.213.355-2.47.352-3.645.879-3.783 1.698-7.493 3.025-11.52 4.073-3.421.892-6.872 1.925-9.838-.558-2.636-2.207-4.51-5.342-4.842-8.758-.788-8.125-2.173-16.219-3.558-24.263.083.478-.643.474-.043.433.286-.021.571-.055.855-.086a20.924 20.924 0 002.354-.438c2.232-.521 4.319-1.553 5.947-3.18.217-.217.618-.783.746-.938.556-.666.983 1.484 1 1.566.284 1.449.736 2.865 1.111 4.293.801 3.041 1.633 6.057 3.055 8.869.803 1.588 1.715 3.578 3.062 4.793.857.771 3.255-.543 4.093-.9 4.717-2.021 9.446-5.768 12.846-9.553 2.734-3.045 5.616-4.979 9.654-5.945.941-.229 6.624-1.418 6.454-2.132.118.471.833.274.723-.189z" fill="#333"/><path fill="#1f70a6" d="M76.753 91.726l3.092 8.161-3.668 31.041.295 3.985 4.871 8.195 6.299-4.545-4.079-38.262 2.79-5.989-3.549-5.509-2.717.577z"/><path d="M76.138 93.821c.225 1.492.998 2.973 1.646 4.322.467.973.807.789 1.859.836.648.027 2.998.582 3.432-.039.861-1.25 1.4-2.742 2.145-4.064.234-.418-.406-.791-.639-.375-.627 1.115-1.17 2.273-1.766 3.404-.314.598-.143.506-.736.469-.697-.041-1.395-.082-2.09-.119-.498-.023-1.002-.059-1.502-.049-.273.004.314.301.129-.043-.111-.211-.213-.43-.316-.646-.586-1.222-1.248-2.545-1.449-3.896-.069-.468-.784-.268-.713.2z" fill="#333"/><path d="M78.198 98.526c-.656 11.439-3.029 22.768-4.355 34.139-.16 1.379.23 1.809.953 3.021 1.324 2.219 2.646 4.439 3.977 6.656.73 1.212 1.104.837 2.275.107 1.818-1.131 3.574-2.373 5.326-3.604.1-.069.195-.187.184-.319-1.188-13.189-2.375-26.381-3.561-39.572-.041-.471-.783-.475-.74 0l3.275 36.41c.074.848.15 1.692.229 2.539.02.184.035.367.051.553-.02-.225.115-.197-.486.225a145.982 145.982 0 01-4.311 2.914c-.385.248-1.441.65-1.217 1.01-.305-.486-.594-.982-.889-1.479-.941-1.574-1.885-3.146-2.82-4.725-.424-.709-1.65-2.191-1.59-2.898.271-3.289.842-6.57 1.299-9.838 1.166-8.332 2.662-16.732 3.143-25.141.025-.473-.715-.471-.743.002z" fill="#333"/><path d="M97.009 52.485c1.547-3.674 3.217-8.836 2.607-12.945-.771-3.938-3.539-8.479-7.84-8.854l-.518-.656c-.232-2.813-5.408-6.041-7.854-6.947-4.484-1.637-10.139-.426-14.25 1.664-3.106 1.545-5.479 3.363-7.87 5.758-2.426 2.432-6.162 2.57-8.655 4.766-3.383 2.973-1.181 6.068 1.229 8.752 5.436 6.053 15.647 7.498 20.99.312 2.248-3.061 2.541-6.848 6.873-8.021 2.33-.582 4.781.162 5.189 2.814" fill="#fff"/><path d="M93.86 66.563c5.074-1.461 8.672-5.486 8.398-9.273-.395-2.301-3.496-7-7.027-3.434l-4.127 4.049-.186 5.471 2.942 3.187z" fill="#f6e4d2"/><path d="M93.958 66.921c3.631-1.15 9.727-4.975 8.66-9.729-.818-3.646-4.457-6.729-7.684-3.563-1.189 1.169-2.381 2.337-3.57 3.503-.865.849-.656 1.558-.697 2.791-.025.728-.547 3.132-.008 3.718l2.938 3.186c.324.353.85-.174.523-.522-.594-.646-1.188-1.289-1.781-1.935-.859-.93-1.055-.836-1.021-1.758l.135-3.938c.025-.896.111-.699.984-1.557.916-.896 1.834-1.799 2.752-2.697 2.164-2.123 4.309-1.506 5.848.814 3.293 4.963-3.184 9.674-7.273 10.973-.456.141-.263.858.194.714z" fill="#333"/><path d="M80.993 90.038s5.68-6.42 5.76-6.666c.221-.664-.898-5.332.09-5.938 2.232-1.367 4.691-4.207 5.914-6.494 1.096-2.05 1.533-4.354 1.83-6.636.203-1.565.334-3.142.467-4.714.152-1.82.717-4.066.492-5.87l-.727-5.86-10.123-14.795-14.776 2.221-12.663 8.133c-.127 7.316 2.093 14.384 3.687 23.643.426 2.479.184 4.936 1.581 7.137 1.638 2.58 3.771 3.398 6.531 4.318 2.598.863 3.366 1.32 5.19 1.355.992.021.756 5.111.914 5.713.496 1.875.713 2.063 2.717 3.211.39.223 3.116 1.242 3.116 1.242z" fill="#f6e4d2"/><path d="M81.255 90.301a562.323 562.323 0 004.508-5.147c.438-.508.963-1.017 1.313-1.594.461-.766-.141-2.623-.221-3.439-.229-2.373 1.547-3.25 3.055-4.752 1.43-1.422 2.82-3.229 3.586-5.107 1.877-4.609 2.09-10.191 2.461-15.113.178-2.354-.471-4.902-.758-7.232-.135-1.051-1.559-2.426-2.129-3.266-2.688-3.922-5.369-7.845-8.057-11.768-.104-.148-.238-.195-.418-.172-2.623.396-5.246.789-7.869 1.186l-5.111.768c-.559.084-1.459.035-1.95.354-2.5 1.604-4.997 3.209-7.494 4.812l-4.084 2.623c-.935.604-1.196.555-1.205 1.729-.039 6.196 1.619 12.347 2.839 18.378 1.169 5.771.501 12.406 6.593 15.327 2.058.983 4.498 1.853 6.744 2.265 2.189.403 1.611 3.232 1.688 5.021.143 3.307 3.568 4.261 6.15 5.229.447.168.641-.549.197-.715-1.701-.639-4.125-1.232-5.133-2.873-.965-1.57-.486-4.061-.738-5.82-.238-1.658-1.014-1.381-2.455-1.646-2.875-.527-6.464-1.836-8.654-3.771-2.884-2.545-2.513-7.008-3.147-10.492-.676-3.701-1.517-7.367-2.226-11.061-.625-3.252-1.064-6.527-1.113-9.844-.01-.658-.197-.426.411-.813a980.98 980.98 0 011.872-1.203c3.062-1.967 6.123-3.934 9.186-5.899 1.668-1.069 3.846-1.054 5.942-1.368l9.58-1.438c.354-.055-.396-.426-.086.027.24.354.482.709.729 1.063.982 1.438 1.965 2.873 2.949 4.311L94.464 48c.451.66.469 3.754.623 4.99.385 3.098-.359 6.348-.654 9.441-.488 5.152-1.873 9.264-5.594 12.969-.779.773-2.141 1.273-2.605 2.297-.389.859-.15 2.064-.064 2.961.064.66.551 2.195.105 2.756-.607.764-1.264 1.494-1.904 2.229a513.052 513.052 0 01-3.637 4.145c-.319.345.204.871.521.513z" fill="#333"/><path d="M68.407 58.741c.027 1.047-.61 1.914-1.432 1.938-.816.021-1.508-.81-1.537-1.856-.027-1.045.611-1.914 1.434-1.938.817-.023 1.505.809 1.535 1.856z" fill="#333"/><ellipse transform="rotate(178.379 82.112 58.222)" cx="82.11" cy="58.223" rx="1.485" ry="1.897" fill="#333"/><path d="M73.265 55.433c.049 1.695-.168 3.404-.719 5.014-.387 1.129-.852 2.121-.67 3.326.26 1.729 2.992 1.957 4.27 2.123.477.061.471-.682 0-.74a16.216 16.216 0 01-1.982-.363c-1.984-.518-1.652-2.104-1.111-3.594.678-1.863 1.012-3.781.953-5.766-.015-.477-.755-.477-.741 0z" fill="#333"/><path d="M91.487 30.62s10.6 3.135 5.781 21.311l-.164.6-1.658 1.006-.537.334s-5.715-10.445-7.539-14.496l-.645-.729-2.232-.377-1.74-.816s-3.715-1.742-5.518 2.086c0 0-4.098 10.977-14.376 9.771-.535-.063-1.171-.479-1.648-.705-1.307-.623-2.857-1.113-4.104-1.857-1.829-1.09-4.079-3.108-5.194-4.938-.812-1.33-1.066-2.977-.982-4.641.06-1.15.555-2.479 1.812-2.491 1.704-.019 3.338-.056 5.035-.308 1.403-.209 2.633-1.125 3.885-1.836 1.948-1.104 3.743-2.5 5.396-4.051.482-.451.954-.916 1.415-1.396 3.063-3.188 12.086-6.73 18.608-1.715 1.347 1.037 3.329 1.777 4.405 5.248z" fill="#4e535a"/><path d="M87.231 40.308c1.775 4.816 4.479 9.152 7.018 13.588.238.416.879.043.641-.373-2.506-4.379-5.188-8.654-6.941-13.412-.167-.444-.884-.253-.718.197z" fill="#333"/><path d="M97.366 52.583c2.16-5.23 3.881-10.936 1.555-16.377-.908-2.125-2.463-3.93-4.449-5.094-.846-.494-2.232-.438-2.813-1.174-.523-.666-.576-1.701-1.205-2.43-8.098-9.324-20.973-5.238-28.828 2.146-2.381 2.238-5.267 2.91-8.042 4.465-1.711.959-3.459 2.979-3.002 5.094.995 4.611 5.832 8.146 10.051 9.598 4.342 1.488 9.108.662 12.647-2.23 1.861-1.521 2.904-3.672 3.98-5.764.695-1.354 1.527-2.521 2.793-3.396 2.322-1.603 5.785-1.229 6.502 1.806.109.465.824.268.715-.197-.875-3.695-4.717-3.83-7.59-2.246-1.418.783-2.316 2.283-3.059 3.66-1.322 2.451-2.5 4.66-4.813 6.344-4.249 3.096-10.055 2.277-14.332-.234-2.543-1.492-5.046-4.104-6.045-6.896-1.453-4.062 4.396-5.771 7.061-6.906 2.21-.938 3.68-2.668 5.473-4.193 2.564-2.188 5.624-3.818 8.812-4.882 5.777-1.927 11.277-.836 15.875 3.052 1.424 1.203 1.684 2.721 2.73 4.055.367.467 1.057.381 1.605.516 1.848.457 3.266 2 4.311 3.494 3.742 5.354 1.619 12.115-.645 17.602-.183.433.534.623.713.187z" fill="#333"/><path d="M89.993 35.71c1.848.455 3.008 1.805 4.004 3.343.26.397.898.026.641-.375-1.1-1.696-2.412-3.181-4.445-3.683-.467-.112-.663.599-.2.715zM88.97 32.077c-1.354-1.303-3.066-2.215-4.977-2.248-.48-.008-.479.732 0 .74 1.711.028 3.236.865 4.453 2.031.344.33.869-.193.524-.523zM68.424 33.548c-1.694 1.605-3.267 3.337-5.272 4.566-3.12 1.912-6.628.904-9.651-.652-.425-.219-.8.423-.375.643 2.988 1.537 6.112 2.448 9.358 1.17 2.581-1.021 4.503-3.34 6.466-5.201.345-.333-.18-.855-.526-.526z" fill="#333"/><path d="M63.974 40.245c-1.673.521-3.246 1.293-4.911 1.83-2.913.941-5.212-.301-7.198-2.428-.326-.352-.85.174-.522.521 1.72 1.843 3.574 3.1 6.167 2.971 2.32-.113 4.483-1.503 6.662-2.182.453-.14.259-.853-.198-.712zM85.022 38.952c-2.15-.879-4.715-2.276-6.863-.682-.379.279-.012.926.375.641 1.949-1.451 4.355-.037 6.293.754.44.181.631-.535.195-.713z" fill="#333"/><ellipse transform="rotate(-6.097 86.686 62.385)" cx="86.725" cy="62.409" rx="3.008" ry="1.535" fill="#fbcab9"/><g><ellipse transform="rotate(-3.779 66.658 64.524)" cx="66.648" cy="64.514" rx="3.008" ry="1.537" fill="#fbcab9"/></g><g><path d="M85.542 52.987c-1.885-1.09-4.834-1.474-6.469.268-.326.348.195.871.523.523 1.4-1.492 3.975-1.076 5.57-.152.415.24.788-.4.376-.639z" fill="#333"/></g><g><path d="M69.442 54.173c-1.934-1.372-4.224-.786-5.906.697-.358.316.168.84.522.523 1.445-1.277 3.35-1.762 5.01-.58.39.279.761-.365.374-.64z" fill="#333"/></g><g><path d="M80.829 88.887c-.164.048-2.959 6.423-4.246 7.983-.584-1.008-1.023-2.629-1.604-3.762-.693-1.381-2.07-4.517-2.07-4.517s2.078-5.313 2.322-5.224c0 .005 5.846 5.446 5.598 5.52zM85.905 84.331c-1.191 1.164-4.352 4.826-3.932 5.32.117.137 3.24 4.822 4.49 6.563.689-1.021 6.262-9.176 6.262-9.176s-3.936-5.492-4.199-5.412l-2.621 2.705z" fill="#fff"/></g><g><path d="M80.532 88.964c-1.693 1.607-2.867 4.244-4.162 6.18-.287.43-.578.855-.879 1.277a4.03 4.03 0 01-.119.152c.459-.504.383-1.049-.225-1.633-.182-.47-.346-.957-.557-1.414-.779-1.681-1.57-3.354-2.318-5.045.16.359.199-.24.387-.672.301-.695.607-1.391.92-2.08.293-.652.598-1.3.922-1.938.32-.635-.34-.68.176-.188a485.45 485.45 0 013.184 3.073c.375.366 2.588 2.149 2.564 2.545-.025.479.715.478.74 0 .045-.836-1.941-2.239-2.449-2.741a273.156 273.156 0 00-3.873-3.74.373.373 0 00-.449-.06c-.637.364-.969 1.62-1.254 2.233a117.282 117.282 0 00-1.537 3.49c-.254.596.672 1.883.896 2.379.938 2.078 1.744 4.248 2.779 6.273.109.221.414.229.58.072 2.232-2.051 3.008-5.563 5.197-7.646.348-.324-.175-.846-.523-.517z" fill="#333"/><path d="M80.667 89.839c1.563 2.141 2.955 4.404 4.49 6.564.166.231.477.242.641 0 2.072-3.068 4.172-6.119 6.26-9.176a.357.357 0 000-.375 163.804 163.804 0 00-2.434-3.314c-.518-.688-1.164-1.93-1.986-2.268-.111-.048-.277.008-.357.094a164.061 164.061 0 00-4.063 4.557c-.582.682-2.881 2.748-2.584 3.828.125.461.84.268.713-.193-.131-.48 1.496-2.037 1.795-2.396.988-1.195 2.021-2.352 3.059-3.508.523-.584 1.053-1.162 1.586-1.738-.346.371-.021.437.443 1.017.561.7 1.09 1.427 1.623 2.146.336.457.67.914 1.002 1.371.389.533.322.771.551.438l-1.715 2.51c-1.512 2.213-3.029 4.422-4.529 6.641h.641c-1.535-2.158-2.928-4.426-4.49-6.564-.285-.39-.927-.021-.646.366z" fill="#333"/></g><g><path d="M105.272 143.372c-5.104.576-15.203.576-20.986.576-1.316 0-5.186-.164-5.186-.164s-.102-2.205-.166-2.881c-.822-8.726-1.729-26.42-1.15-29.877.328-1.977 13.99-1.729 17.611-1.729h5.68c.412 0 1.729-.246 2.141.084.742.41.576 1.646.66 2.471.162 2.469.492 11.191.492 12.674l.904 18.846z" fill="#b0b1b1"/><path d="M105.272 143.001c-5.699.607-11.484.557-17.211.574-2.291.008-4.574.002-6.861-.078-.492-.018-.984-.037-1.475-.057-.785-.031-.275-.121-.262.221a73.497 73.497 0 00-.203-3.252c-.488-5.238-.785-10.5-1.025-15.756-.197-4.279-.486-8.645-.162-12.924.195-2.641 9.297-2.021 11.221-2.053 1.84-.029 3.682-.02 5.52-.012 1.457.006 2.914 0 4.369 0 1.705 0 4.189-.709 4.293 1.648.279 6.43.508 12.859.814 19.287l.613 12.77c.021.478.764.479.74 0-.287-5.957-.57-11.912-.857-17.869-.146-3.006-.191-6.016-.314-9.021-.08-1.912-.195-3.824-.279-5.738-.076-1.783-1.262-1.975-2.771-1.84-4.717.43-9.625-.052-14.369.084-2.473.066-7.393-.367-9.391 1.51-.539.506-.373 1.9-.398 2.541-.08 2.168-.016 4.342.043 6.51.148 5.457.461 10.91.852 16.354.189 2.629.455 5.25.576 7.883.01.209.16.361.371.371 8.652.365 17.553.504 26.174-.412.463-.048.467-.79-.008-.741z" fill="#333"/></g><g><path d="M50.374 114.937c.674.059 1.778.551 2.447.938.414.24.786-.398.374-.639-.503-.289-1.046-.502-1.589-.695-.392-.139-.814-.307-1.232-.344-.475-.044-.472.699 0 .74z" fill="#333"/></g><g><path d="M47.904 118.394c3.182.027 6.431.45 9.481-.673.443-.163.252-.882-.197-.716-2.985 1.102-6.173.678-9.284.646-.477-.002-.476.738 0 .743z" fill="#333"/></g><g><path d="M55.93 110.122c-.075 2.922.802 6.004 1.376 8.84.814 4.025 1.724 8.029 2.648 12.029 1.102 4.762 1.972 9.629 2.207 14.521.074 1.533-1.525 3.37-.653 4.913.731 1.294 2.204 1.39 3.559 1.427.479.012.479-.729 0-.742-1.693-.045-3.278-.369-2.93-2.51.144-.867.65-1.652.723-2.535.215-2.685-.483-5.619-.796-8.291-.345-2.961-1.14-5.855-1.805-8.756a436.762 436.762 0 01-2.349-10.791c-.526-2.607-1.309-5.427-1.239-8.104.012-.479-.729-.477-.741-.001z" fill="#333"/></g><g><path d="M110.237 114.058c-2.201 1.87-3.646 4.74-4.541 7.445-.15.453.564.646.717.195.852-2.576 2.25-5.338 4.348-7.119.365-.308-.162-.83-.524-.521z" fill="#333"/></g><g><path d="M109.511 138.887c.012 1.686-.875 3.852-.479 5.529.375 1.596 1.082 3.076-.121 4.547-.594.727-1.643 1.219-2.426 1.701-.406.252-.033.895.371.643 1.674-1.031 3.238-1.895 3.523-3.977.178-1.287-.619-2.465-.629-3.76-.01-1.568.51-3.104.5-4.688-.001-.473-.741-.473-.739.005z" fill="#333"/></g><g><path d="M87.536 136.13c1.033-1.432.301-3.117-.156-4.604-.502-1.637-.148-3.394-1.289-4.826-1.189-1.496-3.365-1.033-4.854-2.098-.619-.443-1.207-.879-1.979-1.02-1.924-.348-1.957 1.427-2.979 2.598-.877 1.004-2.402 1.129-3.309 2.104-1.143 1.234-.246 2.166.65 3.164.889.986.771 2.359 1.139 3.588.418 1.404.965 3.127 2.412 3.748 1.313.563 2.891.293 4.23-.031 2.227-.541 4.668-.588 6.135-2.623z" fill="#f6e4d2"/><path d="M87.856 136.317c1.236-2.283-.186-4.547-.465-6.928-.201-1.719-.838-3.482-2.658-4.021-1.428-.42-2.67-.641-3.926-1.516-.572-.402-1.561-.855-2.283-.664-.6.158-1.072.381-1.41.936-.867 1.43-1.713 2.348-3.264 3.084-1.482.707-2.146 1.977-1.365 3.438.555 1.041.854.563 1.463 2.235.252.694.293 1.532.459 2.255a8.325 8.325 0 001.41 3.064c1.141 1.545 3.35 1.35 5 1.063 2.527-.438 5.246-.818 6.98-2.869.307-.363-.215-.891-.521-.523-1.238 1.463-2.822 1.883-4.619 2.24-2.785.557-5.705 1.455-7.127-1.924-.57-1.354-.625-2.832-1.123-4.201-.107-.299-.311-.564-.521-.799-1.422-1.604.086-3.213 1.535-3.912.84-.406 1.348-1.07 1.809-1.857 1.412-2.424 3.818-.264 5.564.227.752.213 1.453.318 2.189.631 1.488.631 1.604 2.543 1.754 3.83.227 1.938 1.549 3.87.479 5.842-.227.416.412.789.64.369z" fill="#333"/></g><g><path d="M111.528 122.221c-2.799 0-4.527.821-6.914 2.058-2.963 1.646-6.008 1.646-9.219 2.057-2.885.33-6.221.305-8.998 1.164-1.613.502-3.563.938-4.162 2.679-.582 1.69-.039 2.813.674 4.339.502 1.07.586 2.029 1.602 2.491.682.31 1.76.265 2.492.356 4.883.619 9.965 1.394 14.896 1.315.076 0 10.699-.163 10.699-.163 5.762-.988 11.936-3.787 12.264-6.75.166-1.234.166-2.964 0-4.113-.41-1.729-1.646-3.375-1.729-5.104-.164-2.469-.822-4.031-1.975-6.008" fill="#fff"/><path d="M111.528 121.851c-2.061.061-3.867.557-5.734 1.42-1.512.697-2.926 1.459-4.547 1.893-1.896.506-3.908.57-5.852.803-2.916.348-5.832.678-8.738 1.082-1.604.227-2.996.813-3.941 2.139-1.654 2.318-.58 7.164 2.213 8.18 1.93.701 4.021.604 6.037.828 3.336.373 6.664.754 10.023.85 5.848.168 11.82.303 17.375-1.697 3.449-1.243 6.748-3.012 6.979-6.936.162-2.812-1.01-4.604-1.752-7.223-.326-1.152-.283-2.432-.611-3.607-.314-1.139-.924-2.205-1.502-3.225-.232-.414-.875-.041-.639.373 1.113 1.967 1.635 3.7 1.939 5.92.303 2.221 1.688 4.047 1.822 6.309.154 2.558-.377 4.205-2.5 5.715-1.865 1.328-4.135 2.091-6.307 2.74-4.295 1.283-9.023.824-13.463.894-3.803.06-7.596-.425-11.365-.853-2.17-.246-4.854.08-6.658-1.361-2.096-1.674-2.166-5.881-.031-7.479 1.857-1.394 5.096-1.193 7.279-1.461 2.426-.293 4.855-.551 7.281-.83 4.535-.523 8.133-3.594 12.691-3.73.478-.018.48-.76.001-.744z" fill="#333"/></g><g><path d="M72.454 69.467c1.596-.332 3.191-.599 4.854-.995.934-.201 5.725-1.066 5.725-1.066s-.066 1.996-.201 2.596c-.268.996-1.281 2.906-2.26 3.261-3.328 1.194-5.988-.532-7.252-3.325" fill="#f6989b"/><path d="M72.058 70.317c3.521-.717 7.041-1.424 10.576-2.063a72.321 72.321 0 01-.469-.355c-.07 1.951-.291 3.516-1.623 5.074-1.055 1.232-3.43.852-4.68.293-1.281-.572-2.119-1.816-2.723-3.025-.211-.428-.85-.053-.639.373 1.523 3.074 4.328 4.531 7.67 3.496 2.359-.73 2.662-4.229 2.732-6.211.01-.258-.242-.398-.471-.357-3.535.64-7.055 1.349-10.574 2.063-.463.093-.266.808.201.712z" fill="#333"/></g></g><g><path d="M72.366 15.032a.624.624 0 01-.6-.465 12.134 12.134 0 00-5.54-7.436.618.618 0 11.638-1.059 13.342 13.342 0 016.1 8.188.618.618 0 01-.445.75.515.515 0 01-.153.022zM84.548 16.139a.615.615 0 01-.617-.614 13.42 13.42 0 013.295-8.854.618.618 0 01.932.81c-1.938 2.227-3 5.08-2.992 8.037a.613.613 0 01-.613.618h-.004v.003zM78.019 14.081a.614.614 0 01-.615-.614l-.027-9.353c0-.342.273-.619.615-.619h.002c.34 0 .617.273.617.615l.025 9.352a.612.612 0 01-.615.619h-.002zM77.989 3.11a.616.616 0 01-.619-.613l-.004-1.73a.614.614 0 01.613-.619h.002c.342 0 .617.273.617.615l.006 1.729a.614.614 0 01-.613.619h-.002z" fill="#333"/></g></svg>