<svg xmlns="http://www.w3.org/2000/svg" width="56" height="52"><g fill="#fff"><path d="M45.068 42.363h-1.855V26.107c0-8.387-6.822-15.209-15.211-15.209-8.384 0-15.208 6.822-15.208 15.209v16.256h-1.859c-.738 0-1.337.598-1.337 1.336v6.645c0 .738.599 1.34 1.337 1.34h34.134a1.34 1.34 0 001.336-1.34v-6.645a1.337 1.337 0 00-1.337-1.336zM15.467 26.107c0-6.912 5.623-12.537 12.535-12.537 6.914 0 12.539 5.625 12.539 12.537v16.256H15.467V26.107zM43.73 49.008H12.272v-3.973h31.459v3.973h-.001zM28 8.343c.738 0 1.338-.6 1.338-1.336V1.653a1.338 1.338 0 00-2.673 0v5.354A1.334 1.334 0 0028 8.343zM16.364 10.484a1.336 1.336 0 102.315-1.338l-2.676-4.637a1.332 1.332 0 00-1.826-.488 1.335 1.335 0 00-.489 1.826l2.676 4.637zM11.009 18.156c.37-.639.15-1.457-.489-1.826l-4.636-2.678a1.337 1.337 0 00-1.336 2.316l4.636 2.676c.209.123.439.182.667.182.46 0 .91-.241 1.158-.67zM7.043 26.63H1.689c-.736 0-1.336.6-1.336 1.336 0 .738.6 1.338 1.336 1.338h5.354a1.337 1.337 0 100-2.674zM37.813 10.972a1.335 1.335 0 001.826-.488l2.676-4.637A1.336 1.336 0 1040 4.509l-2.674 4.637a1.334 1.334 0 00.487 1.826zM51.945 14.142a1.33 1.33 0 00-1.822-.49l-4.639 2.678a1.335 1.335 0 00-.488 1.826 1.332 1.332 0 001.824.488l4.639-2.676a1.336 1.336 0 00.486-1.826zM54.313 26.63h-5.354a1.337 1.337 0 000 2.674h5.354a1.338 1.338 0 000-2.674z"/></g></svg>