<svg xmlns="http://www.w3.org/2000/svg" width="53" height="49"><path d="M52.613 18.749L46.336 1.013a1.4 1.4 0 00-1.787-.852L25.572 6.88a1.401 1.401 0 00-.853 1.787c.09.254.248.461.443.619l-.199.069 1.955 5.517c.207.563.931 1.854 3.074 1.584 1.441-.174 2.193-1.096 2.691-1.705.334-.41.537-.646.824-.748a1.446 1.446 0 011.732.631l.34.969a1.443 1.443 0 01-.943 1.58c-.287.104-.596.047-1.113-.062-.771-.16-1.934-.404-3.162.367-.711.443-1.105.934-1.316 1.396-.309-1.898-1.957-3.322-3.892-3.322-1.031 0-1.766.447-2.302.773-.515.314-.632.355-.824.313l-.05-.014v-6.547c0-.143-.027-.276-.067-.407.002-.028.009-.056.009-.084a1.4 1.4 0 00-1.4-1.399H1.704A1.4 1.4 0 00.305 9.596V47.52a1.4 1.4 0 001.399 1.399H39.33a1.4 1.4 0 001.4-1.399V30.197c.674.5 1.498.791 2.357.791.268 0 .535-.027.807-.084.061-.016.119-.029.178-.052l1.053-.371c.061-.021.117-.045.174-.073a3.967 3.967 0 001.92-4.834c-.346-.972-1.012-1.516-1.496-1.91-.467-.379-.547-.474-.57-.676l-.006-.05c1.332-.474 6.17-2.187 6.17-2.187l-.051-.144c.01 0 .02.005.027.005a1.394 1.394 0 001.32-1.863zm-33.435-7.75v5.981c.005.446.182 1.94 2.238 2.399 1.327.297 2.269-.271 2.892-.654.394-.236.61-.361.846-.361.548 0 1.021.391 1.128.922v.893c-.107.529-.58.92-1.128.92-.235 0-.452-.125-.847-.364-.622-.38-1.562-.95-2.892-.651-2 .449-2.23 1.828-2.237 2.416v5.83h-4.495a1.64 1.64 0 01-.049-.184c-.063-.284.019-.463.37-1.041.354-.579.838-1.377.838-2.48a4.26 4.26 0 00-3.679-4.207 1.474 1.474 0 00-.188-.015h-1.244c-.062 0-.125.007-.188.015a4.26 4.26 0 00-3.677 4.207c0 1.104.484 1.898.838 2.48.352.578.434.758.37 1.043a2.302 2.302 0 01-.049.182H3.102V11.001l16.076-.002zm7.743 20.91c-.317.521-.751 1.232-.751 2.242 0 .062.014.12.017.184a3.86 3.86 0 00-1.033-.156c-1.031 0-1.765.447-2.301.773-.515.312-.63.355-.828.311l-.047-.01v-4.107h5.239v.008c.037.158.013.247-.296.755zm-23.817-.781l5.183-.002c.601-.006 2.049-.252 2.521-2.369.316-1.418-.301-2.434-.71-3.106-.275-.45-.431-.724-.431-1.026 0-.693.499-1.291 1.174-1.42h1.025a1.452 1.452 0 011.176 1.42c0 .305-.155.576-.431 1.026-.409.675-1.027 1.688-.71 3.106.473 2.117 1.92 2.363 2.537 2.371h4.739v4.469c.005.447.182 1.945 2.238 2.4 1.326.295 2.268-.275 2.891-.652.395-.24.611-.365.847-.365.548 0 1.021.393 1.128.921v.894c-.107.529-.58.92-1.128.92-.235 0-.452-.125-.846-.363-.622-.381-1.562-.953-2.89-.652-2.059.459-2.235 1.955-2.24 2.418v5.01H3.103l.001-15zm34.828 14.994H21.978v-4.685a.686.686 0 01.053-.013c.193-.047.308.002.821.313.536.324 1.271.771 2.302.771a3.962 3.962 0 003.914-3.422c.008-.062.014-.125.014-.188V37.87c.143.037.281.08.43.1.061.008.123.014.186.014h1.076c.063 0 .125-.006.188-.014a3.867 3.867 0 003.342-3.82c0-1.01-.436-1.723-.752-2.242-.311-.508-.332-.6-.295-.764v-.002h4.678v14.979l-.003.001zm1.384-17.793l-6.434.016c-.441.006-1.916.178-2.363 2.195-.291 1.301.268 2.217.637 2.824.227.371.344.573.344.787 0 .502-.355.934-.84 1.031h-.85c-.484-.1-.84-.529-.84-1.031 0-.214.117-.416.344-.787.367-.607.926-1.523.637-2.82-.447-2.021-1.922-2.193-2.379-2.199h-5.594v-5.52l.052-.013c.191-.043.309 0 .822.313.536.326 1.271.772 2.302.772 1.869 0 3.467-1.335 3.85-3.138l1.918 5.41c.012.035.035.062.051.094.012.064.023.129.047.191a1.399 1.399 0 001.785.852c4.217-1.488 5.854-2.068 6.51-2.307.01.016.021.029.029.047.105.168.104.291-.021.881-.127.607-.297 1.439.035 2.4-.014.006-.03.002-.042.002zm4.569-7.912c-.42.154-1.771.822-1.514 2.908.16 1.354 1.016 2.049 1.582 2.51.357.293.547.455.625.674a1.156 1.156 0 01-.49 1.373l-.844.295a1.14 1.14 0 01-1.242-.754c-.078-.223-.033-.469.063-.92.148-.713.373-1.791-.352-2.943-1.088-1.729-2.465-1.493-3.008-1.309-.01.004-.018.006-.025.01l-5.488 1.943a679.778 679.778 0 00-1.502-4.234c.039-.031.092-.066.16-.11.246-.155.441-.136 1.102.003.666.139 1.58.332 2.621-.037a4.257 4.257 0 002.736-4.873 1.272 1.272 0 00-.049-.179l-.414-1.175c-.021-.059-.047-.114-.074-.172a4.26 4.26 0 00-5.197-2.063c-1.041.368-1.629 1.092-2.061 1.618-.426.522-.566.659-.857.694-.076.01-.137.015-.186.015-.293-.821-1.215-3.429-1.645-4.64l16.336-5.785 5.365 15.152-5.642 1.999z" fill="#fff"/></svg>