<svg xmlns="http://www.w3.org/2000/svg" width="38" height="37"><path d="M37.54 30.156a6.737 6.737 0 01-6.74 6.742H7.202A6.741 6.741 0 01.46 30.156V6.843A6.742 6.742 0 017.202.102H30.8a6.74 6.74 0 016.74 6.741v23.313z" fill="#d2292b"/><path d="M26.741 11.234c-.805-.117-4.67-.27-7.741-.27-3.072 0-6.936.151-7.74.27-1.396.227-2.156.854-2.561 2.474-.135.544-.324 3.527-.324 4.669v.249c0 1.14.189 4.123.324 4.669.404 1.618 1.164 2.243 2.561 2.47.807.119 4.68.269 7.746.269l-.014.004c3.073 0 6.944-.151 7.749-.271 1.398-.226 2.158-.851 2.564-2.47.135-.545.324-3.529.324-4.669v-.249c0-1.142-.189-4.125-.324-4.669-.406-1.625-1.165-2.251-2.564-2.476z" fill="#fff"/><path fill="#d12929" d="M16.452 15.774l5.096 2.661-5.096 2.788z"/></svg>