<svg xmlns="http://www.w3.org/2000/svg" width="38" height="37"><path d="M37.54 30.156a6.74 6.74 0 01-6.742 6.743H7.2a6.74 6.74 0 01-6.74-6.743V6.842A6.74 6.74 0 017.2.102h23.598a6.74 6.74 0 016.742 6.74v23.314z" fill="#35b14a"/><path d="M29.481 3.121H7.961c-2.744 0-4.967 2.233-4.967 4.987v11.827c0 2.752 2.223 4.986 4.967 4.986h7.414l2.529 4.116s.025.05.08.116a.854.854 0 00.736.428.849.849 0 00.729-.423c.064-.071.086-.121.086-.121l2.527-4.116h7.414c2.744 0 4.969-2.234 4.969-4.986V8.108a4.97 4.97 0 00-4.964-4.987z" fill="#fff"/><g fill="#f47728"><path d="M9.981 11.789s-.859 0-1.639.76V9.494H6.418v8.022h1.945v-.63s.459.83 1.617.83c0 0 2.713-.103 2.713-2.996.001.001-.099-2.931-2.712-2.931zm-.424 4.232a1.235 1.235 0 110-2.471 1.237 1.237 0 010 2.471zM13.315 9.312v1.858s.877-.041.877 1.598v4.749h1.855v-5.188c0-.001.082-3.017-2.732-3.017zM20.587 11.815s-3.184 0-3.184 2.969c0 0-.102 2.935 3.184 2.935 0 0 3.256-.005 3.256-2.935 0 0 .107-2.969-3.256-2.969zm.002 4.206a1.235 1.235 0 110-2.471 1.237 1.237 0 010 2.471zM29.155 12.006v.541s-.555-.731-1.617-.731c0 0-2.725-.117-2.725 2.95 0 0-.027 2.854 2.646 2.854 0 0 1.094.046 1.693-.731v.45s.135 1.406-1.229 1.406h-.463v1.704h.748s2.814.031 2.814-3.007v-5.437l-1.867.001zm-1.15 4.015a1.235 1.235 0 110-2.471 1.236 1.236 0 110 2.471z"/></g></svg>