<svg xmlns="http://www.w3.org/2000/svg" width="80" height="71"><path d="M62.801 69.596c1.822 2.158 8.439-.174 11.424-.412 1.992-.156 5.025-1.998 5.641-3.84 1.359-2.635-10.564 3.359-15.918 4.063" opacity=".13" fill="#020202"/><path fill="#f7bf99" d="M69.373 48.697l-.098.524 1.069.197.105-.809z"/><path d="M62.969 69.213s-.232.332-.246.457c0 0 2.396 2.133 1.117.078l-.871-.535zM74.664 68.629s.188.361.291.43c0 0 2.998-1.148.586-.955l-.877.525z" fill="#111112"/><path d="M66.705 57.479s-.486 1.855-.311 2.438l-.654 3.568-2.771 5.73s.285.641.738.727l3.418-5.834s1.338-3.771 1.252-4.402l.387.145 4.936 4.014.973 4.801s.801.018.949-.393l-.826-5.406-4.492-4.268c-.003-.003-3.027-1.173-3.599-1.12z" fill="#161618"/><path d="M70.404 49.354l-1.119-.205s-2.139 1.189-2.352 1.867l-.594 7.672s2.662.832 4.824.521l.539-7.482c.003 0-.067-.887-1.298-2.373z" fill="#a59c5c"/><path d="M71.252 46.994c.152.084.23.281.252.438.014.086.014.176.012.262 0 .09-.029.176-.02.268.012.072.07.137.086.201.021.092-.074.066-.129.098-.063.039-.09.123-.123.184-.053.092-.148.143-.238.197-.127.082-.227.158-.379.207-.098.033-.205.039-.311.045l-.652-.164.053-1.355.896-.492.553.111z" fill="#f7bf99"/><path d="M69.984 46.051c.076-.041.197-.033.281-.033.182 0 .332.07.504.129.125.043.254.084.363.16.068.049.119.113.172.176.057.068.109.135.164.203.041.055.105.123.123.191.016.068.002.158.002.232 0 .063 0 .125-.027.18-.063.117-.188.092-.289.063-.143-.039-.271.002-.393.074-.113.063-.219.164-.229.295-.01.129-.047.244-.09.361-.049.016-.08-.096-.102-.129-.029-.049-.043-.148-.086-.184-.051-.039-.125-.014-.146.035a.424.424 0 00-.021.221c.014.07.045.133.09.191.035.047.09.09.102.148a.303.303 0 01-.15.318c-.113.066-.225.145-.352.18a.847.847 0 01-.445-.045c-.049-.018-.148-.029-.178-.074-.014-.02-.01-.078-.016-.102a1.384 1.384 0 01-.029-.131c-.043-.234-.043-.473-.109-.703a2.489 2.489 0 01-.094-.688c0-.221.105-.418.252-.578.07-.076.139-.158.215-.229.061-.053.133-.088.193-.145.104-.092.162-.139.303-.146.039 0 .105.004.139-.012" fill="#8d5825"/><path d="M70.846 49.92s1.383 2.188 3.012 4.219l1.129-1.957s.336.229.424.424c0 0-1.059 2.787-1.305 3.068 0 0-.281.365-2.746-2.35l-.514-3.404z" fill="#a59c5c"/><g><path fill="#111112" d="M74.997 52.381l-1.2-.63 1.069-2.032 1.2.631z"/><path fill="#fff" d="M75.046 51.894l-.871-.457.762-1.452.87.457z"/><circle cx="74.525" cy="51.865" r=".086" fill="#979797"/></g><path d="M74.854 52.225c-.066-.355-.273-.625-.039-.98.008.002.045 0 .053 0 .07.209.074.709.342.41.164-.186.205-.461.4-.625-.002.365.219 1.209-.172 1.424" fill="#f7bf99"/><g><g opacity=".25"><linearGradient id="a" gradientUnits="userSpaceOnUse" x1="1803.479" y1="-1298.207" x2="1806.306" y2="-1295.536" gradientTransform="translate(-1798.602 1322.715)"><stop offset="0" stop-color="#fff" stop-opacity="0"/><stop offset="1" stop-color="#7388ae"/></linearGradient><path fill="url(#a)" d="M2.62 24.95l6.487 3.818 1.933-1.013-6.487-3.817z"/></g><g opacity=".25"><linearGradient id="b" gradientUnits="userSpaceOnUse" x1="1811.004" y1="-1302.385" x2="1813.936" y2="-1299.615" gradientTransform="translate(-1798.602 1322.715)"><stop offset="0" stop-color="#fff" stop-opacity="0"/><stop offset="1" stop-color="#7388ae"/></linearGradient><path fill="url(#b)" d="M10.059 20.787l6.728 3.96 2.005-1.049-6.728-3.96z"/></g><path fill="#897e64" d="M17.507 16.721l1.606-.893-.016 8.41-1.608.893z"/><path fill="#aa9d82" d="M17.507 16.721l-.018 8.41-1.812-.999.016-8.411z"/><g fill="#5ac1a0"><path d="M23.093 15.578l-5.812-8.325-5.615 7.971c-.312.432-.468.891-.467 1.351v.017l.002.031-.002.007h.002c.024.884.621 1.764 1.793 2.441 2.384 1.376 6.234 1.384 8.604.017 1.174-.678 1.762-1.566 1.767-2.458v-.042a2.204 2.204 0 00-.272-1.01z"/><path d="M21.996 11.479L17.28 4.728l-4.555 6.464c-.252.35-.38.722-.379 1.097v.013l.002.024-.002.005h.002c.02.718.504 1.433 1.454 1.981 1.933 1.116 5.058 1.12 6.979.013.952-.552 1.428-1.271 1.434-1.995v-.034a1.795 1.795 0 00-.219-.817z"/></g><g><path fill="#897e64" d="M9.685 22.502l1.272-.709-.013 6.657-1.272.707z"/><path fill="#aa9d82" d="M9.685 22.502l-.013 6.655-1.435-.79.014-6.66z"/><g fill="#68c4a8"><path d="M14.109 21.597l-4.602-6.588-4.444 6.308c-.247.342-.37.705-.37 1.069v.014l.001.025-.001.005h.002c.021.698.49 1.396 1.418 1.93 1.887 1.09 4.938 1.097 6.812.016.93-.537 1.395-1.241 1.397-1.945v-.036a1.75 1.75 0 00-.213-.798z"/><path d="M13.237 18.353l-3.729-5.344-3.605 5.118a1.454 1.454 0 00-.299.866v.033h.002c.014.568.397 1.134 1.148 1.568 1.53.884 4.005.888 5.524.011.754-.436 1.13-1.006 1.134-1.579v-.027a1.405 1.405 0 00-.175-.646z"/></g></g></g><g><g opacity=".6"><linearGradient id="c" gradientUnits="userSpaceOnUse" x1="353.313" y1="-1285.79" x2="374.038" y2="-1260.982" gradientTransform="translate(-347.13 1322.715)"><stop offset="0" stop-color="#fff" stop-opacity="0"/><stop offset="1" stop-color="#8587b0"/></linearGradient><path fill="url(#c)" d="M.029 51.486L18.62 61.852l17.239-11.334-18.592-10.366z"/></g><path fill="#a3bde3" d="M60.783 8.793l-.127 40.353L44.4 58.564l.129-40.352z"/><path fill="#8aa8d7" d="M44.529 18.212L44.4 58.564l-14.342-8.443.127-40.346z"/><path fill="#fff" d="M60.783 8.793l-16.254 9.419-14.344-8.437L46.439.358z"/><path fill="#d3e2f0" d="M32.605 9.795L46.656 1.86l11.705 6.913-14.05 7.937z"/><path fill="#fff" d="M52.045 26.012l-.016 2.138-1.781 1.034.018-2.138zM52.045 29.918l-.016 2.137-1.781 1.03.018-2.131zM52.045 33.824l-.016 2.137-1.781 1.035.018-2.137zM52.045 37.734l-.016 2.135-1.781 1.035.018-2.136z"/><g><path fill="#fff" d="M48.701 27.752l-.012 2.138-1.783 1.034.016-2.138zM48.701 31.658l-.012 2.139-1.783 1.029.016-2.129zM48.701 35.565l-.012 2.138-1.783 1.035.016-2.138zM48.701 39.475l-.012 2.134-1.783 1.037.016-2.138z"/></g><g><path fill="#fff" d="M55.561 23.845l-.016 2.142-1.775 1.03.011-2.137zM55.561 27.752l-.016 2.137-1.775 1.039.011-2.142zM55.561 31.66l-.016 2.139-1.775 1.034.011-2.139zM55.561 35.573l-.016 2.13-1.775 1.035.011-2.136z"/></g><g><path fill="#fff" d="M59.076 21.682l-.013 2.138-1.782 1.034.018-2.138zM52.045 22.023l-.016 2.137-1.781 1.035.018-2.139zM48.701 23.763l-.012 2.137-1.783 1.034.016-2.138zM55.561 19.856l-.016 2.141-1.775 1.031.011-2.137zM59.076 17.693l-.013 2.137-1.782 1.034.018-2.137zM52.045 18.033l-.016 2.138-1.781 1.034.018-2.138zM48.701 19.774l-.012 2.136-1.783 1.035.016-2.138zM55.561 15.866l-.016 2.141-1.775 1.03.011-2.135zM59.076 13.703l-.013 2.138-1.782 1.033.018-2.136zM59.076 25.586l-.013 2.14-1.782 1.036.018-2.138zM59.076 29.497l-.013 2.139-1.782 1.033.018-2.138zM59.076 33.404l-.013 2.134-1.782 1.036.018-2.138z"/></g><g><path fill="#a3bde3" d="M46.656 1.86v1.972L34.36 10.811l-1.755-1.016z"/><path fill="#8aa8d7" d="M46.656 1.86v1.972l9.953 5.932 1.752-.991z"/></g><g><path fill="#3b4176" d="M56.344 41.301l-.055 10.24-5.914 3.42.049-10.219z"/><path fill="#4a5c96" d="M55.256 51.16l1.025.479-5.902 3.457-.004-1.168z"/><path fill="#3e4b87" d="M55.234 41.979v9.255l1.084.405V41.348z"/></g><g><path fill="#fff" d="M44.404 34.59l-15.981 9.262-14.107-8.297L30.3 26.293z"/><path fill="#d3e2f0" d="M16.695 35.575l13.818-7.804 11.512 6.799-13.819 7.803z"/><path fill="#a3bde3" d="M45.732 33.706l-.97 24.689-16.466 9.394.127-23.937z"/><path fill="#8aa8d7" d="M28.423 43.852l-.127 23.937-14.105-8.301.125-23.933z"/><path fill="#fff" d="M41.721 39.092l-.012 14.064-1.261.739.015-14.069zM38.816 40.811l-.014 14.064-1.26.738.014-14.066zM35.909 42.529l-.013 14.067-1.261.734.015-14.064zM33.002 44.248l-.014 14.066-1.26.737.015-14.067z"/><g><path fill="#a3bde3" d="M30.513 27.771v1.94l-12.091 6.861-1.727-.997z"/><path fill="#8aa8d7" d="M30.513 27.771v1.94l9.789 5.833 1.723-.974z"/></g></g></g></svg>