<svg xmlns="http://www.w3.org/2000/svg" width="38" height="51"><g fill="#fff"><path d="M37.529 12.508L25.258.75a1.307 1.307 0 00-.91-.367H3.724A3.66 3.66 0 00.067 4.039l.03 45.253a1.316 1.316 0 001.313 1.313l32.866.01a3.66 3.66 0 003.658-3.652V13.458c0-.358-.145-.702-.405-.95zM25.453 4.579l8.125 7.786h-8.125V4.579zm8.822 43.405l-31.55-.008L2.697 4.04c0-.564.46-1.025 1.026-1.025H22.82V13.68c0 .727.59 1.316 1.316 1.316h11.166V46.96a1.024 1.024 0 01-1.027 1.024z"/><path d="M28.619 17.903H9.381a1.314 1.314 0 100 2.63h19.238a1.316 1.316 0 000-2.63zM28.619 26.74H9.381a1.315 1.315 0 000 2.628h19.238a1.314 1.314 0 000-2.628zM28.619 35.58H9.381a1.314 1.314 0 100 2.629h19.238a1.315 1.315 0 000-2.629z"/></g></svg>