<svg xmlns="http://www.w3.org/2000/svg" width="38" height="50"><g fill="#fff"><path d="M36.579 46.979h-.347c-.073-.012-.142-.043-.218-.043a.555.555 0 01-.557-.553v-3.709c0-.307.249-.555.557-.555.041 0 .076-.02.117-.021h.445a1.266 1.266 0 001.265-1.267l-.054-37.204a3.145 3.145 0 00-3.14-3.139H3.295A3.142 3.142 0 00.157 3.627v42.746a3.142 3.142 0 003.138 3.139h33.282a1.267 1.267 0 00.002-2.533zM2.69 3.627c0-.334.272-.605.606-.605H34.65c.335 0 .606.271.606.607l.055 35.938H3.296c-.207 0-.409.021-.606.059V3.627zm.607 38.471h29.69a3.05 3.05 0 00-.061.576v.762H2.885c-.07 0-.129.026-.196.039v-.771a.609.609 0 01.608-.606zm-.607 4.275v-.447c.067.012.126.041.196.041h30.042v.416c0 .204.021.4.062.596H3.298a.608.608 0 01-.608-.606z"/><circle cx="21.394" cy="12.128" r="2.667"/><path d="M15.534 17.703h6.95l-3.555 13.338s-.566 1.775.969.322c1.046-.992 3.153-3.152 3.153-3.152s-.082.646-1.779 3.07c-.692.992-1.57 2.107-2.909 2.426-3.396.811-4.121-.402-2.989-4.445 1.131-4.041 2.989-9.939 2.989-9.939h-2.829v-1.62z"/></g></svg>