<svg xmlns="http://www.w3.org/2000/svg" width="29" height="46"><g fill="#fff"><path d="M27.614.313H1.387C.75.313.239.828.239 1.459v43.08c0 .635.514 1.148 1.148 1.148h26.227c.633 0 1.146-.516 1.146-1.148V1.459A1.147 1.147 0 0027.614.313zM11.44 43.119v-9.361h6.124v9.361H11.44zm15.026.274h-6.607V32.611a1.15 1.15 0 00-1.148-1.15h-8.417c-.635 0-1.146.518-1.146 1.15v10.781h-6.61V2.61H26.47v40.783h-.004z"/><path d="M6.325 8.454h3.773v3.773H6.325zM12.616 8.454h3.772v3.773h-3.772zM18.903 8.454h3.771v3.773h-3.771zM6.325 15.577h3.773v3.771H6.325zM12.616 15.577h3.772v3.771h-3.772zM18.903 15.577h3.771v3.771h-3.771zM6.325 22.699h3.773v3.772H6.325zM12.616 22.699h3.772v3.772h-3.772zM18.903 22.699h3.771v3.772h-3.771z"/></g></svg>