<?xml version="1.0" encoding="utf-8"?>
<!-- Generator: Adobe Illustrator 16.0.0, SVG Export Plug-In . SVG Version: 6.00 Build 0)  -->
<!DOCTYPE svg PUBLIC "-//W3C//DTD SVG 1.1//EN" "http://www.w3.org/Graphics/SVG/1.1/DTD/svg11.dtd">
<svg version="1.1" id="Layer_1" xmlns="http://www.w3.org/2000/svg" xmlns:xlink="http://www.w3.org/1999/xlink" x="0px" y="0px"
	 width="56.69px" height="56.69px" viewBox="0 0 56.69 56.69" enable-background="new 0 0 56.69 56.69" xml:space="preserve">
<g>
	<g>
		<g>
			<path fill="#FFFFFF" d="M50.068,53.761H6.624c-1.587,0-2.878-1.29-2.878-2.877V23.767c0-0.536,0.269-1.037,0.716-1.334l4.92-3.26
				c0.738-0.486,1.73-0.286,2.218,0.45s0.286,1.729-0.45,2.218l-4.204,2.785v25.936h42.8v-25.95l-4.087-2.79
				c-0.729-0.498-0.917-1.494-0.419-2.224c0.499-0.73,1.496-0.916,2.224-0.419l4.784,3.267c0.437,0.298,0.697,0.792,0.697,1.321
				v27.117C52.945,52.471,51.654,53.761,50.068,53.761z"/>
		</g>
		<g>
			<path fill="#FFFFFF" d="M28.56,43.879c-1.11,0-2.012-0.451-2.521-0.866L4.484,29.231c-0.745-0.476-0.962-1.465-0.486-2.21
				c0.476-0.744,1.465-0.962,2.21-0.485l21.651,13.842c0.084,0.054,0.164,0.115,0.237,0.185c0.134,0.104,0.527,0.279,1.188-0.128
				c1.801-1.108,20.844-13.756,21.035-13.884c0.737-0.488,1.729-0.288,2.219,0.448c0.488,0.735,0.288,1.729-0.447,2.218
				c-0.787,0.522-19.281,12.806-21.129,13.943C30.106,43.686,29.289,43.879,28.56,43.879z"/>
		</g>
	</g>
	<g>
		<g>
			<path fill="#FFFFFF" d="M10.458,32.605c-0.884,0-1.6-0.716-1.6-1.6V5.807c0-1.587,1.291-2.877,2.878-2.877h33.222
				c1.587,0,2.878,1.29,2.878,2.877v25.13c0,0.884-0.716,1.6-1.601,1.6c-0.883,0-1.6-0.716-1.6-1.6V6.129H12.058v24.877
				C12.058,31.89,11.341,32.605,10.458,32.605z"/>
		</g>
		<g>
			<path fill="#FFFFFF" d="M29.837,17.203H17.484c-0.884,0-1.6-0.716-1.6-1.6s0.716-1.6,1.6-1.6h12.353
				c0.884,0,1.601,0.716,1.601,1.6S30.721,17.203,29.837,17.203z"/>
		</g>
		<g>
			<path fill="#FFFFFF" d="M39.952,23.378H17.484c-0.884,0-1.6-0.716-1.6-1.6s0.716-1.6,1.6-1.6h22.468
				c0.884,0,1.601,0.716,1.601,1.6S40.836,23.378,39.952,23.378z"/>
		</g>
		<g>
			<path fill="#FFFFFF" d="M39.952,29.555H17.484c-0.884,0-1.6-0.716-1.6-1.6s0.716-1.6,1.6-1.6h22.468
				c0.884,0,1.601,0.716,1.601,1.6S40.836,29.555,39.952,29.555z"/>
		</g>
	</g>
</g>
</svg>
