<svg xmlns="http://www.w3.org/2000/svg" width="49" height="51"><g fill="#fff"><path d="M25.371 16.59l1.219 4.42c.16.58.687.984 1.289.99.592.053 1.136-.387 1.308-.963l1.326-4.447h1.231a1.35 1.35 0 000-2.701h-.428l.986-3.308a1.35 1.35 0 00-2.588-.774l-1.217 4.078h-1.07l-1.17-4.237a1.348 1.348 0 00-1.27-.989c-.604-.033-1.131.362-1.315.93l-1.407 4.3h-1.551l-1.441-4.476a1.35 1.35 0 10-2.57.828l1.175 3.646h-.623a1.351 1.351 0 000 2.702h1.492l1.441 4.477c.18.557.697.936 1.282.936h.003c.584 0 1.102-.375 1.283-.93l1.467-4.48 1.148-.002z"/><path d="M48.049 27.035a1.343 1.343 0 00-1.176-.246c-1.582.41-3.238.711-4.994 1.029-5.854 1.061-12.479 2.268-16.029 8.277v-7.834c7.139-.682 12.74-6.709 12.74-14.021C38.59 6.469 32.27.15 24.498.15c-7.77 0-14.089 6.318-14.089 14.09 0 7.314 5.603 13.342 12.741 14.021v7.832c-3.552-6.01-10.175-7.217-16.029-8.275-1.755-.318-3.412-.619-4.993-1.029a1.35 1.35 0 00-1.69 1.334c.134 6.568 3.533 18.992 15.435 18.992h.002c2.215 0 4.663-.459 7.275-1.313V49.5a1.351 1.351 0 002.701 0v-3.699c2.611.855 5.061 1.314 7.277 1.314 11.901 0 15.302-12.424 15.436-18.992a1.359 1.359 0 00-.515-1.088zM15.875 44.416c-5.071-.002-8.743-2.67-10.916-7.936-1.029-2.492-1.479-5.023-1.674-6.648 1.113.236 2.246.441 3.354.643 5.844 1.061 11.364 2.063 14.261 7.107.406.762 1.729 4.045 2.019 5.471-2.578.904-4.943 1.363-7.044 1.363zM13.107 14.24c0-6.281 5.11-11.392 11.391-11.392S35.892 7.956 35.892 14.24c0 6.281-5.111 11.393-11.394 11.393-6.28 0-11.391-5.112-11.391-11.393zm30.934 22.242c-3.074 7.445-9.172 9.652-17.959 6.568.289-1.426 1.61-4.707 2.012-5.457 2.902-5.061 8.424-6.062 14.268-7.121 1.108-.199 2.241-.404 3.354-.643-.195 1.628-.646 4.159-1.675 6.653z"/></g></svg>