<svg xmlns="http://www.w3.org/2000/svg" width="47" height="47"><path d="M45.432 46.748H1.568c-.728 0-1.315-.59-1.315-1.314V1.568C.253.841.842.253 1.568.253h43.863c.729 0 1.314.591 1.314 1.315v43.866a1.31 1.31 0 01-1.313 1.314zm-42.55-2.631h41.233V2.884H2.882v41.233z" fill="#fff"/><path d="M32.754 18.832c0 1.232-.199 2.365-.604 3.4-.406 1.029-.939 1.918-1.602 2.67a7.516 7.516 0 01-2.332 1.736 6.174 6.174 0 01-2.684.627H18.6v8.811h-4.182V10.368H25.15c.998 0 1.957.196 2.871.606a7.478 7.478 0 012.428 1.719 8.63 8.63 0 011.682 2.67c.412 1.037.623 2.187.623 3.469m-7.6 4.984c.426 0 .842-.113 1.242-.338.404-.221.768-.549 1.088-.973.32-.427.578-.949.766-1.564.193-.617.287-1.322.287-2.108s-.094-1.495-.287-2.128a6.278 6.278 0 00-.73-1.609 3.606 3.606 0 00-1.086-.975c-.404-.225-.811-.34-1.215-.34h-6.614v10.035h6.549z" fill="#fff"/></svg>